<svg width="2899" height="2222" viewBox="0 0 2899 2222" fill="none" xmlns="http://www.w3.org/2000/svg">
<path opacity="0.3" d="M1223.17 970.455C1395.58 970.455 1535.35 830.689 1535.35 658.279C1535.35 485.868 1395.58 346.102 1223.17 346.102C1050.76 346.102 910.992 485.868 910.992 658.279C910.992 830.689 1050.76 970.455 1223.17 970.455Z" fill="#FF4DA3"/>
<path opacity="0.3" d="M618.68 1711.17C720.559 1711.17 803.149 1628.58 803.149 1526.7C803.149 1424.82 720.559 1342.23 618.68 1342.23C516.8 1342.23 434.211 1424.82 434.211 1526.7C434.211 1628.58 516.8 1711.17 618.68 1711.17Z" fill="#FF4DA3"/>
<path opacity="0.3" d="M1802.12 1904.15C2010.58 1904.15 2179.57 1735.16 2179.57 1526.7C2179.57 1318.24 2010.58 1149.25 1802.12 1149.25C1593.66 1149.25 1424.67 1318.24 1424.67 1526.7C1424.67 1735.16 1593.66 1904.15 1802.12 1904.15Z" fill="#FF4DA3"/>
<path d="M550.938 916.768L545.387 915.585C546.576 910.009 547.815 904.451 549.105 898.912L554.634 900.199C553.352 905.704 552.12 911.228 550.938 916.768Z" fill="#FF4DA3"/>
<path d="M2338.18 869.875C2335.27 859.061 2332.11 848.14 2328.79 837.418L2334.21 835.741C2337.55 846.53 2340.73 857.519 2343.66 868.401L2338.18 869.875ZM562.912 867.395L557.436 865.904C560.407 854.99 563.627 843.971 567.008 833.152L572.426 834.846C569.065 845.598 565.865 856.548 562.912 867.395ZM2318.23 805.384C2314.51 794.786 2310.56 784.142 2306.48 773.75L2311.77 771.677C2315.87 782.133 2319.85 792.843 2323.58 803.507L2318.23 805.384ZM583.141 802.682L577.789 800.789C581.569 790.11 585.598 779.367 589.763 768.854L595.04 770.944C590.9 781.393 586.896 792.071 583.141 802.682ZM2293.57 742.564C2289.1 732.306 2284.38 721.978 2279.52 711.868L2284.64 709.41C2289.52 719.584 2294.28 729.975 2298.78 740.297L2293.57 742.564ZM608.105 739.678L602.908 737.392C607.465 727.035 612.275 716.624 617.208 706.448L622.316 708.923C617.413 719.036 612.632 729.383 608.105 739.678ZM2264.34 681.701C2259.1 671.766 2253.62 661.81 2248.05 652.108L2252.97 649.282C2258.58 659.043 2264.09 669.06 2269.36 679.057L2264.34 681.701ZM637.654 678.724L632.641 676.061C637.952 666.065 643.517 656.041 649.182 646.269L654.093 649.115C648.463 658.828 642.931 668.79 637.654 678.724ZM2230.68 623.129C2224.75 613.621 2218.55 604.09 2212.27 594.799L2216.97 591.617C2223.29 600.967 2229.53 610.557 2235.5 620.122L2230.68 623.129ZM671.606 620.137L666.803 617.113C672.824 607.553 679.108 597.969 685.483 588.63L690.172 591.828C683.837 601.112 677.59 610.636 671.606 620.137ZM2192.81 567.16C2186.22 558.148 2179.34 549.092 2172.35 540.247L2176.81 536.73C2183.84 545.63 2190.76 554.742 2197.39 563.81L2192.81 567.16ZM709.764 564.226L705.196 560.855C711.913 551.75 718.882 542.657 725.91 533.828L730.35 537.362C723.366 546.138 716.44 555.175 709.764 564.226ZM2150.92 514.095C2143.65 505.55 2136.12 497.019 2128.54 488.741L2132.73 484.908C2140.36 493.236 2147.93 501.819 2155.24 510.418L2150.92 514.095ZM751.905 511.274L747.596 507.58C754.943 499.012 762.556 490.455 770.225 482.148L774.396 485.997C766.774 494.255 759.207 502.759 751.905 511.274ZM2105.25 464.218C2097.36 456.209 2089.23 448.25 2081.07 440.559L2084.97 436.43C2093.17 444.169 2101.35 452.177 2109.29 460.235L2105.25 464.218ZM797.793 461.564L793.766 457.565C801.736 449.539 809.952 441.564 818.185 433.862L822.062 438.007C813.88 445.661 805.715 453.588 797.793 461.564ZM2056.04 417.797C2047.59 410.393 2038.9 403.046 2030.19 395.961L2033.77 391.56C2042.53 398.688 2051.28 406.079 2059.78 413.529L2056.04 417.797ZM847.175 415.353L843.45 411.069C851.979 403.654 860.752 396.303 869.529 389.219L873.093 393.637C864.371 400.676 855.651 407.983 847.175 415.353ZM2003.55 375.084C1994.61 368.33 1985.39 361.638 1976.17 355.194L1979.42 350.541C1988.7 357.025 1997.97 363.758 2006.97 370.552L2003.55 375.084ZM899.785 372.887L896.385 368.342C905.436 361.568 914.722 354.881 923.983 348.465L927.215 353.132C918.011 359.507 908.782 366.154 899.785 372.887ZM1948.06 336.32C1938.62 330.23 1928.94 324.23 1919.28 318.49L1922.18 313.61C1931.9 319.387 1941.64 325.423 1951.14 331.551L1948.06 336.32ZM955.344 334.4L952.284 329.619C961.794 323.535 971.541 317.548 981.254 311.825L984.136 316.717C974.482 322.404 964.794 328.354 955.344 334.4ZM1889.85 301.73C1880.01 296.359 1869.9 291.088 1859.82 286.063L1862.35 280.983C1872.5 286.04 1882.67 291.343 1892.57 296.747L1889.85 301.73ZM1829.22 271.511C1819.01 266.88 1808.54 262.371 1798.11 258.106L1800.26 252.851C1810.75 257.143 1821.29 261.682 1831.57 266.343L1829.22 271.511ZM1766.51 245.859C1755.93 241.986 1745.15 238.262 1734.46 234.791L1736.21 229.392C1746.97 232.886 1757.82 236.633 1768.46 240.529L1766.51 245.859ZM1702.02 224.919C1691.21 221.848 1680.21 218.942 1669.32 216.279L1670.66 210.767C1681.62 213.445 1692.7 216.371 1703.57 219.459L1702.02 224.919ZM1636.32 208.857C1625.33 206.598 1614.14 204.514 1603.07 202.662L1604 197.063C1615.14 198.927 1626.4 201.025 1637.46 203.298L1636.32 208.857ZM1266.71 208.324L1265.59 202.761C1276.67 200.518 1287.93 198.453 1299.06 196.624L1299.98 202.225C1288.92 204.042 1277.73 206.094 1266.71 208.324ZM1569.61 197.694C1558.46 196.248 1547.15 194.994 1535.99 193.962L1536.51 188.311C1547.74 189.349 1559.12 190.611 1570.34 192.065L1569.61 197.694ZM1333.46 197.357L1332.74 191.725C1343.93 190.308 1355.31 189.077 1366.57 188.067L1367.08 193.721C1355.88 194.724 1344.57 195.948 1333.46 197.357ZM1502.26 191.462C1491.07 190.837 1479.7 190.41 1468.46 190.193L1468.57 184.517C1479.88 184.737 1491.32 185.167 1502.58 185.794L1502.26 191.462ZM1400.82 191.317L1400.52 185.649C1411.79 185.052 1423.24 184.655 1434.54 184.468L1434.63 190.144C1423.4 190.329 1412.02 190.724 1400.82 191.317Z" fill="#FF4DA3"/>
<path d="M2350.15 919.914C2348.99 914.368 2347.77 908.842 2346.51 903.334L2352.05 902.064C2353.32 907.607 2354.54 913.169 2355.7 918.75L2350.15 919.914Z" fill="#FF4DA3"/>
<path d="M2357.81 1289.99L2352.23 1288.89C2353.33 1283.34 2354.37 1277.78 2355.37 1272.2L2360.96 1273.2C2359.96 1278.81 2358.91 1284.41 2357.81 1289.99Z" fill="#FF4DA3"/>
<path d="M1397.82 2033.24C1386.56 2032.61 1375.17 2031.76 1363.97 2030.73L1364.49 2025.08C1375.62 2026.1 1386.94 2026.94 1398.14 2027.57L1397.82 2033.24ZM1330.22 2026.99C1319.01 2025.53 1307.71 2023.86 1296.64 2022.01L1297.58 2016.41C1308.58 2018.25 1319.81 2019.91 1330.95 2021.35L1330.22 2026.99ZM1634.25 2016.39L1633.13 2010.83C1644.14 2008.6 1655.23 2006.15 1666.08 2003.54L1667.4 2009.06C1656.49 2011.69 1645.34 2014.15 1634.25 2016.39ZM1263.26 2015.79C1252.19 2013.52 1241.04 2011.02 1230.13 2008.36L1231.48 2002.84C1242.32 2005.49 1253.4 2007.98 1264.4 2010.24L1263.26 2015.79ZM1700.26 2000.51L1698.73 1995.04C1709.5 1992.03 1720.37 1988.77 1731.05 1985.34L1732.78 1990.75C1722.04 1994.19 1711.1 1997.48 1700.26 2000.51ZM1197.3 1999.7C1186.45 1996.62 1175.49 1993.3 1164.73 1989.81L1166.48 1984.41C1177.18 1987.88 1188.07 1991.18 1198.85 1994.24L1197.3 1999.7ZM1764.84 1979.82L1762.9 1974.49C1773.39 1970.69 1783.97 1966.65 1794.35 1962.46L1796.47 1967.72C1786.03 1971.93 1775.39 1976.01 1764.84 1979.82ZM1132.55 1978.72C1121.94 1974.84 1111.27 1970.71 1100.82 1966.44L1102.96 1961.19C1113.35 1965.43 1123.96 1969.53 1134.5 1973.39L1132.55 1978.72ZM1827.64 1954.46L1825.33 1949.27C1835.54 1944.7 1845.8 1939.89 1855.82 1934.95L1858.32 1940.05C1848.24 1945.01 1837.92 1949.86 1827.64 1954.46ZM1069.57 1953.01C1059.28 1948.36 1048.94 1943.46 1038.84 1938.44L1041.37 1933.35C1051.41 1938.34 1061.68 1943.22 1071.9 1947.84L1069.57 1953.01ZM1888.46 1924.51L1885.76 1919.52C1895.63 1914.2 1905.51 1908.65 1915.13 1902.99L1918.01 1907.89C1908.32 1913.57 1898.38 1919.17 1888.46 1924.51ZM1008.68 1922.74C998.761 1917.34 988.817 1911.69 979.12 1905.94L982.014 1901.06C991.652 1906.77 1001.54 1912.39 1011.39 1917.75L1008.68 1922.74ZM1946.94 1890.18L1943.88 1885.4C1953.28 1879.4 1962.73 1873.13 1971.97 1866.75L1975.2 1871.42C1965.9 1877.84 1956.39 1884.15 1946.94 1890.18ZM950.207 1888.08C940.729 1881.98 931.23 1875.62 921.973 1869.17L925.217 1864.51C934.418 1870.92 943.859 1877.24 953.278 1883.31L950.207 1888.08ZM2002.76 1851.64L1999.37 1847.09C2008.32 1840.41 2017.29 1833.47 2026.03 1826.44L2029.59 1830.86C2020.8 1837.93 2011.77 1844.92 2002.76 1851.64ZM894.457 1849.24C885.467 1842.48 876.461 1835.44 867.691 1828.33L871.266 1823.92C879.984 1830.99 888.934 1837.98 897.868 1844.71L894.457 1849.24ZM2055.64 1809.11L2051.92 1804.82C2060.38 1797.5 2068.82 1789.91 2077.02 1782.27L2080.89 1786.43C2072.65 1794.11 2064.15 1801.74 2055.64 1809.11ZM841.71 1806.44C833.213 1799.02 824.747 1791.34 816.551 1783.64L820.439 1779.5C828.586 1787.16 836.999 1794.79 845.446 1802.17L841.71 1806.44ZM2105.3 1762.83L2101.28 1758.82C2109.21 1750.87 2117.08 1742.68 2124.67 1734.5L2128.83 1738.36C2121.2 1746.6 2113.28 1754.83 2105.3 1762.83ZM792.244 1759.93C784.335 1751.93 776.455 1743.66 768.819 1735.36L772.999 1731.52C780.587 1739.77 788.419 1747.99 796.28 1755.94L792.244 1759.93ZM2151.46 1713.04L2147.16 1709.33C2154.48 1700.83 2161.74 1692.09 2168.72 1683.36L2173.16 1686.9C2166.13 1695.69 2158.83 1704.48 2151.46 1713.04ZM746.312 1709.95C739.005 1701.39 731.751 1692.57 724.75 1683.74L729.198 1680.22C736.156 1688.99 743.366 1697.75 750.63 1706.26L746.312 1709.95ZM2193.89 1659.99L2189.33 1656.61C2196.03 1647.57 2202.63 1638.32 2208.94 1629.12L2213.62 1632.33C2207.27 1641.59 2200.63 1650.89 2193.89 1659.99ZM704.164 1656.77C697.494 1647.69 690.905 1638.37 684.578 1629.07L689.273 1625.88C695.56 1635.12 702.109 1644.39 708.737 1653.41L704.164 1656.77ZM2232.33 1603.96L2227.53 1600.92C2233.52 1591.47 2239.43 1581.76 2245.08 1572.06L2249.99 1574.92C2244.29 1584.68 2238.35 1594.45 2232.33 1603.96ZM666.024 1600.68C660.043 1591.15 654.155 1581.38 648.527 1571.63L653.44 1568.79C659.036 1578.48 664.888 1588.19 670.833 1597.66L666.024 1600.68ZM2266.57 1545.24L2261.56 1542.57C2266.87 1532.64 2272.05 1522.52 2276.95 1512.48L2282.05 1514.97C2277.12 1525.07 2271.91 1535.26 2266.57 1545.24ZM632.109 1541.96C626.841 1532.02 621.689 1521.85 616.796 1511.73L621.907 1509.26C626.769 1519.31 631.89 1529.42 637.125 1539.31L632.109 1541.96ZM2296.4 1484.15L2291.22 1481.85C2295.76 1471.61 2300.17 1461.12 2304.34 1450.69L2309.62 1452.8C2305.42 1463.29 2300.97 1473.84 2296.4 1484.15ZM602.609 1480.95C598.085 1470.64 593.697 1460.12 589.568 1449.68L594.846 1447.59C598.949 1457.97 603.31 1468.42 607.805 1478.67L602.609 1480.95ZM2321.66 1420.97L2316.31 1419.06C2320.1 1408.48 2323.73 1397.69 2327.11 1387L2332.52 1388.72C2329.12 1399.47 2325.47 1410.32 2321.66 1420.97ZM577.695 1417.96C573.94 1407.34 570.331 1396.5 566.972 1385.75L572.39 1384.06C575.728 1394.74 579.313 1405.52 583.047 1416.07L577.695 1417.96ZM2342.17 1356.07L2336.7 1354.56C2339.67 1343.8 2342.49 1332.8 2345.07 1321.87L2350.6 1323.18C2348 1334.18 2345.17 1345.24 2342.17 1356.07ZM557.448 1353.16C554.494 1342.3 551.7 1331.24 549.145 1320.28L554.674 1318.99C557.212 1329.89 559.988 1340.88 562.924 1351.67L557.448 1353.16Z" fill="#FF4DA3"/>
<path d="M541.933 1286.47C540.852 1280.89 539.821 1275.29 538.84 1269.67L544.433 1268.7C545.406 1274.28 546.43 1279.84 547.506 1285.39L541.933 1286.47Z" fill="#FF4DA3"/>
<path d="M1913.55 1292.58L1908.28 1290.5C1910.34 1285.29 1912.34 1279.96 1914.23 1274.65L1919.58 1276.55C1917.66 1281.92 1915.64 1287.32 1913.55 1292.58Z" fill="#FF4DA3"/>
<path d="M1707.15 1496.58C1701.26 1499.98 1695.25 1503.29 1689.28 1506.42L1686.64 1501.4C1696.54 1496.2 1706.47 1490.56 1716.02 1484.69L1718.99 1489.53C1715.09 1491.93 1711.14 1494.28 1707.15 1496.58ZM1747.49 1470.66L1744.2 1466.04C1753.35 1459.53 1762.38 1452.62 1771.04 1445.51L1774.64 1449.9C1765.88 1457.09 1756.74 1464.08 1747.49 1470.66ZM1658.49 1521.27C1648.1 1525.85 1637.43 1530.13 1626.76 1533.98L1624.84 1528.64C1635.38 1524.83 1645.93 1520.61 1656.21 1516.08L1658.49 1521.27ZM1800.3 1427.31L1796.4 1423.18C1804.57 1415.47 1812.56 1407.39 1820.16 1399.16L1824.33 1403.01C1816.65 1411.34 1808.56 1419.51 1800.3 1427.31L1800.3 1427.31ZM1594.23 1544.47C1583.3 1547.58 1572.14 1550.35 1561.04 1552.7L1559.87 1547.14C1570.83 1544.82 1581.87 1542.09 1592.68 1539.01L1594.23 1544.47ZM1846.63 1377.1L1842.2 1373.55C1849.22 1364.81 1856.02 1355.7 1862.43 1346.48L1867.09 1349.72C1860.61 1359.04 1853.73 1368.26 1846.63 1377.1L1846.63 1377.1ZM1527.36 1558.6C1516.12 1560.18 1504.67 1561.38 1493.36 1562.17L1492.97 1556.51C1504.15 1555.73 1515.46 1554.54 1526.58 1552.98L1527.36 1558.6ZM1885.61 1320.99L1880.74 1318.08C1886.49 1308.43 1891.98 1298.48 1897.05 1288.48L1902.11 1291.05C1896.98 1301.16 1891.43 1311.23 1885.61 1320.99ZM1459.19 1563.39C1447.84 1563.41 1436.35 1563.03 1425.03 1562.26L1425.41 1556.6C1436.6 1557.35 1447.96 1557.73 1459.19 1557.72L1459.19 1563.39ZM1916.53 1260.05L1911.31 1257.84C1915.69 1247.49 1919.77 1236.88 1923.43 1226.29L1928.79 1228.15C1925.09 1238.86 1920.97 1249.59 1916.53 1260.05ZM1391.01 1558.79C1379.75 1557.25 1368.41 1555.31 1357.32 1553.01L1358.47 1547.45C1369.44 1549.72 1380.64 1551.65 1391.78 1553.17L1391.01 1558.79ZM1938.85 1195.48L1933.37 1194C1936.31 1183.16 1938.9 1172.09 1941.09 1161.09L1946.66 1162.2C1944.45 1173.32 1941.82 1184.52 1938.85 1195.48L1938.85 1195.48ZM1324.1 1544.94C1313.18 1541.89 1302.21 1538.42 1291.51 1534.63L1293.41 1529.28C1303.99 1533.03 1314.83 1536.46 1325.63 1539.48L1324.1 1544.94ZM1952.18 1128.46L1946.55 1127.74C1947.98 1116.61 1949.05 1105.29 1949.71 1094.09L1955.38 1094.42C1954.7 1105.76 1953.63 1117.21 1952.18 1128.46ZM1259.7 1522.12C1249.28 1517.6 1238.89 1512.67 1228.82 1507.46L1231.43 1502.42C1241.38 1507.57 1251.65 1512.45 1261.96 1516.91L1259.7 1522.12ZM1956.24 1060.25L1950.56 1060.3C1950.46 1049.09 1949.97 1037.73 1949.09 1026.54L1954.75 1026.1C1955.64 1037.41 1956.14 1048.91 1956.24 1060.25L1956.24 1060.25ZM1199.02 1490.72C1189.31 1484.82 1179.69 1478.51 1170.44 1471.98L1173.71 1467.34C1182.86 1473.8 1192.37 1480.04 1201.97 1485.87L1199.02 1490.72Z" fill="#FF4DA3"/>
<path d="M941.503 1107.78L935.832 1107.99C935.406 1096.53 935.378 1084.9 935.752 1073.43L941.424 1073.61C941.056 1084.95 941.083 1096.45 941.503 1107.78ZM1687.87 667.321C1678.17 661.478 1668.12 655.899 1658 650.734L1660.58 645.68C1670.81 650.903 1680.98 656.547 1690.8 662.456L1687.87 667.321ZM943.714 1039.52L938.067 1038.95C939.232 1027.53 940.812 1016.01 942.762 1004.71L948.357 1005.67C946.428 1016.85 944.866 1028.24 943.714 1039.52ZM1627.05 636.261C1616.62 631.817 1605.9 627.678 1595.18 623.957L1597.04 618.595C1607.88 622.357 1618.73 626.544 1629.28 631.039L1627.05 636.261ZM955.323 972.22L949.808 970.872C952.533 959.729 955.683 948.536 959.169 937.604L964.578 939.329C961.13 950.136 958.016 961.202 955.323 972.22ZM1562.53 613.881C1551.58 610.913 1540.39 608.288 1529.26 606.081L1530.37 600.514C1541.62 602.746 1552.94 605.401 1564.02 608.403L1562.53 613.881ZM976.077 907.154L970.801 905.061C975.037 894.389 979.697 883.736 984.651 873.399L989.77 875.852C984.872 886.072 980.265 896.603 976.077 907.154ZM1495.54 600.592C1484.29 599.159 1472.84 598.1 1461.52 597.447L1461.84 591.78C1473.3 592.441 1484.88 593.511 1496.26 594.962L1495.54 600.592ZM1005.6 845.576L1000.66 842.774C1006.32 832.798 1012.41 822.893 1018.75 813.333L1023.48 816.471C1017.21 825.921 1011.2 835.714 1005.6 845.576ZM1427.36 596.666C1416 596.8 1404.52 597.337 1393.23 598.258L1392.77 592.601C1404.19 591.669 1415.8 591.127 1427.29 590.99L1427.36 596.666ZM1043.35 788.679L1038.85 785.22C1045.85 776.125 1053.26 767.163 1060.87 758.58L1065.11 762.347C1057.59 770.83 1050.27 779.69 1043.35 788.679V788.679ZM1359.29 602.225C1348.07 603.935 1336.78 606.063 1325.72 608.55L1324.48 603.012C1335.66 600.497 1347.08 598.344 1358.44 596.613L1359.29 602.225ZM1088.66 737.599L1084.69 733.545C1092.88 725.519 1101.46 717.675 1110.2 710.232L1113.88 714.554C1105.24 721.911 1096.76 729.664 1088.66 737.599V737.599ZM1292.67 617.206C1281.81 620.461 1270.92 624.142 1260.31 628.148L1258.3 622.837C1269.04 618.785 1280.05 615.061 1291.04 611.768L1292.67 617.206ZM1140.64 693.318L1137.27 688.753C1146.47 681.959 1156.06 675.381 1165.76 669.196L1168.81 673.983C1159.22 680.098 1149.74 686.603 1140.64 693.318V693.318ZM1228.78 641.314C1218.5 646.033 1208.22 651.184 1198.24 656.622L1195.53 651.64C1205.62 646.138 1216.01 640.928 1226.42 636.156L1228.78 641.314Z" fill="#FF4DA3"/>
<path d="M1171.01 294.477C1163.56 294.448 1156.32 297.007 1150.54 301.716C1144.76 306.426 1140.8 312.995 1139.32 320.303C1137.85 327.61 1138.95 335.203 1142.45 341.786C1145.95 348.37 1151.62 353.535 1158.51 356.401C1165.39 359.268 1173.05 359.657 1180.19 357.504C1187.33 355.35 1193.49 350.786 1197.64 344.592C1201.79 338.397 1203.66 330.955 1202.93 323.536C1202.21 316.116 1198.93 309.179 1193.65 303.908C1190.69 300.912 1187.17 298.535 1183.28 296.916C1179.39 295.297 1175.22 294.468 1171.01 294.477V294.477Z" fill="#3F3D56"/>
<path d="M1042.61 294.477C1035.16 294.448 1027.93 297.007 1022.15 301.716C1016.37 306.426 1012.4 312.995 1010.93 320.303C1009.45 327.61 1010.56 335.203 1014.05 341.786C1017.55 348.37 1023.23 353.535 1030.11 356.401C1036.99 359.268 1044.65 359.657 1051.79 357.504C1058.93 355.35 1065.1 350.786 1069.25 344.592C1073.39 338.397 1075.26 330.955 1074.54 323.536C1073.81 316.116 1070.53 309.179 1065.26 303.908C1062.29 300.92 1058.76 298.548 1054.88 296.929C1050.99 295.311 1046.82 294.477 1042.61 294.477Z" fill="#3F3D56"/>
<path d="M1106.81 116.357C1074.82 116.357 1043.54 125.844 1016.94 143.619C990.34 161.394 969.606 186.658 957.363 216.217C945.119 245.775 941.915 278.301 948.157 309.68C954.399 341.059 969.806 369.883 992.429 392.506C1015.05 415.129 1043.88 430.536 1075.26 436.777C1106.63 443.019 1139.16 439.815 1168.72 427.572C1198.28 415.328 1223.54 394.595 1241.32 367.993C1259.09 341.391 1268.58 310.115 1268.58 278.121C1268.58 235.219 1251.54 194.073 1221.2 163.737C1190.86 133.4 1149.72 116.357 1106.81 116.357V116.357ZM1138.25 183.813C1140.31 183.794 1142.35 184.184 1144.25 184.962C1146.15 185.74 1147.88 186.89 1149.34 188.344C1150.79 189.799 1151.94 191.529 1152.72 193.432C1153.5 195.336 1153.89 197.376 1153.87 199.433C1153.89 202.55 1152.98 205.603 1151.26 208.203C1149.54 210.802 1147.09 212.832 1144.21 214.034C1141.34 215.236 1138.17 215.556 1135.11 214.952C1132.05 214.349 1129.24 212.85 1127.04 210.646C1124.83 208.442 1123.33 205.632 1122.73 202.574C1122.13 199.515 1122.45 196.347 1123.65 193.471C1124.85 190.595 1126.88 188.141 1129.48 186.421C1132.08 184.702 1135.13 183.794 1138.25 183.813V183.813ZM1042.62 372.429C1033.54 372.434 1024.68 369.748 1017.13 364.712C1009.59 359.675 1003.71 352.515 1000.23 344.135C996.76 335.756 995.85 326.534 997.618 317.637C999.387 308.741 1003.75 300.568 1010.17 294.154C1016.58 287.74 1024.75 283.373 1033.65 281.604C1042.55 279.836 1051.77 280.746 1060.15 284.219C1068.53 287.693 1075.69 293.574 1080.73 301.118C1085.76 308.662 1088.45 317.531 1088.44 326.601C1088.4 338.743 1083.56 350.376 1074.98 358.962C1066.39 367.547 1054.76 372.388 1042.62 372.429H1042.62ZM1114.67 281.068V325.275C1114.67 327.359 1113.85 329.358 1112.37 330.832C1110.9 332.306 1108.9 333.134 1106.81 333.134C1104.73 333.134 1102.73 332.306 1101.26 330.832C1099.78 329.358 1098.96 327.359 1098.96 325.275V292.906C1098.96 286.471 1091.1 285.047 1068.75 272.178C1065.85 270.459 1059.66 267.413 1059.66 258.867C1059.71 254.748 1061.35 250.807 1064.23 247.864L1099.45 213.923C1101.12 212.232 1103.16 210.951 1105.41 210.182C1107.66 209.412 1110.05 209.175 1112.41 209.49C1114.77 209.804 1117.02 210.661 1118.99 211.992C1120.96 213.324 1122.59 215.095 1123.76 217.165L1138.25 246.685H1161.83C1163.91 246.689 1165.9 247.519 1167.38 248.992C1168.85 250.466 1169.67 252.462 1169.67 254.544C1169.67 256.626 1168.85 258.623 1167.38 260.096C1165.9 261.57 1163.91 262.399 1161.83 262.403H1133.63C1128.38 262.403 1124.15 251.106 1114.97 237.107L1090.95 262.403C1099.74 269.28 1114.67 274.585 1114.67 281.068H1114.67ZM1171.01 372.38C1161.95 372.38 1153.09 369.692 1145.55 364.657C1138.02 359.621 1132.14 352.464 1128.67 344.09C1125.2 335.716 1124.3 326.501 1126.07 317.612C1127.83 308.722 1132.2 300.556 1138.61 294.147C1145.02 287.738 1153.18 283.373 1162.07 281.605C1170.96 279.837 1180.18 280.744 1188.55 284.213C1196.92 287.682 1204.08 293.555 1209.12 301.092C1214.15 308.628 1216.84 317.488 1216.84 326.552C1216.8 338.695 1211.96 350.329 1203.38 358.915C1194.79 367.501 1183.16 372.342 1171.01 372.38H1171.01Z" fill="#3F3D56"/>
<path d="M2361.2 910.988C2329.21 910.988 2297.93 920.476 2271.33 938.25C2244.73 956.025 2223.99 981.289 2211.75 1010.85C2199.51 1040.41 2196.3 1072.93 2202.55 1104.31C2208.79 1135.69 2224.19 1164.51 2246.82 1187.14C2269.44 1209.76 2298.26 1225.17 2329.64 1231.41C2361.02 1237.65 2393.55 1234.45 2423.11 1222.2C2452.67 1209.96 2477.93 1189.23 2495.71 1162.62C2513.48 1136.02 2522.97 1104.75 2522.97 1072.75C2522.97 1029.85 2505.92 988.705 2475.59 958.368C2445.25 928.031 2404.11 910.988 2361.2 910.988ZM2318.32 1026.63C2323.27 1026.74 2328.08 1028.32 2332.14 1031.15C2336.2 1033.98 2339.33 1037.95 2341.14 1042.56C2342.96 1047.16 2343.37 1052.2 2342.34 1057.04C2341.3 1061.88 2338.86 1066.31 2335.32 1069.77C2331.78 1073.23 2327.3 1075.57 2322.43 1076.49C2317.57 1077.42 2312.54 1076.88 2307.98 1074.96C2303.42 1073.04 2299.52 1069.82 2296.78 1065.69C2294.04 1061.57 2292.58 1056.73 2292.58 1051.78C2292.62 1048.44 2293.31 1045.13 2294.63 1042.06C2295.94 1038.99 2297.85 1036.2 2300.24 1033.87C2302.63 1031.53 2305.46 1029.69 2308.56 1028.45C2311.66 1027.21 2314.98 1026.59 2318.32 1026.63V1026.63ZM2455.51 1135.62H2438.37V1110.48H2284.04V1135.62H2266.89V1009.88H2284.04V1085.33H2352.61V1026.63H2421.23C2425.68 1026.58 2430.1 1027.41 2434.23 1029.07C2438.37 1030.73 2442.13 1033.19 2445.32 1036.3C2448.5 1039.42 2451.04 1043.13 2452.79 1047.23C2454.54 1051.32 2455.46 1055.72 2455.51 1060.18V1135.62Z" fill="#3F3D56"/>
<path d="M582.002 1049.26H533.865C533.344 1049.26 532.846 1049.47 532.477 1049.84C532.109 1050.21 531.902 1050.71 531.9 1051.23V1119.99C531.902 1120.51 532.109 1121.01 532.478 1121.38C532.846 1121.75 533.344 1121.96 533.865 1121.96H582.002C584.084 1121.95 586.08 1121.12 587.552 1119.65C589.025 1118.18 589.855 1116.18 589.861 1114.1V1057.12C589.855 1055.04 589.025 1053.04 587.552 1051.57C586.08 1050.1 584.084 1049.27 582.002 1049.26Z" fill="#3F3D56"/>
<path d="M571.203 1136.7C568.957 1136.88 566.811 1137.7 565.018 1139.06C563.224 1140.43 561.858 1142.27 561.081 1144.39C560.305 1146.5 560.149 1148.8 560.633 1151C561.118 1153.2 562.221 1155.21 563.814 1156.8C565.407 1158.4 567.423 1159.5 569.623 1159.99C571.823 1160.47 574.116 1160.31 576.231 1159.54C578.345 1158.76 580.193 1157.4 581.557 1155.6C582.92 1153.81 583.742 1151.66 583.924 1149.42C584.059 1147.71 583.823 1146 583.231 1144.39C582.64 1142.79 581.707 1141.33 580.498 1140.12C579.288 1138.91 577.831 1137.98 576.226 1137.39C574.622 1136.8 572.908 1136.56 571.203 1136.7V1136.7Z" fill="#3F3D56"/>
<path d="M476.939 1136.7C474.694 1136.88 472.547 1137.7 470.754 1139.06C468.961 1140.43 467.595 1142.27 466.818 1144.39C466.041 1146.5 465.885 1148.8 466.37 1151C466.854 1153.2 467.958 1155.21 469.551 1156.8C471.144 1158.4 473.159 1159.5 475.359 1159.99C477.56 1160.47 479.852 1160.31 481.967 1159.54C484.082 1158.76 485.93 1157.4 487.293 1155.6C488.656 1153.81 489.478 1151.66 489.661 1149.42C489.796 1147.71 489.559 1146 488.968 1144.39C488.376 1142.79 487.444 1141.33 486.234 1140.12C485.025 1138.91 483.567 1137.98 481.963 1137.39C480.358 1136.8 478.644 1136.56 476.939 1136.7V1136.7Z" fill="#3F3D56"/>
<path d="M516.187 1049.26H468.149C466.041 1049.27 464.021 1050.11 462.531 1051.6C461.04 1053.09 460.199 1055.11 460.191 1057.22V1114C460.199 1116.11 461.04 1118.13 462.531 1119.62C464.021 1121.11 466.041 1121.95 468.149 1121.96H516.187C516.708 1121.96 517.206 1121.75 517.575 1121.38C517.943 1121.01 518.15 1120.51 518.152 1119.99V1051.23C518.15 1050.71 517.943 1050.21 517.575 1049.84C517.207 1049.47 516.708 1049.26 516.187 1049.26V1049.26Z" fill="#3F3D56"/>
<path d="M525.027 930.724C493.033 930.724 461.757 940.211 435.155 957.986C408.553 975.761 387.819 1001.02 375.575 1030.58C363.332 1060.14 360.128 1092.67 366.37 1124.05C372.612 1155.43 388.018 1184.25 410.642 1206.87C433.265 1229.5 462.089 1244.9 493.468 1251.14C524.847 1257.39 557.373 1254.18 586.932 1241.94C616.49 1229.7 641.755 1208.96 659.53 1182.36C677.305 1155.76 686.792 1124.48 686.792 1092.49C686.792 1049.59 669.749 1008.44 639.412 978.103C609.075 947.767 567.93 930.724 525.027 930.724V930.724ZM603.617 1158.31C603.602 1163.51 601.527 1168.5 597.846 1172.18C594.164 1175.86 589.176 1177.94 583.97 1177.95H466.084C460.878 1177.94 455.889 1175.86 452.208 1172.18C448.527 1168.5 446.452 1163.51 446.436 1158.31V1022.74C446.449 1018.57 448.109 1014.58 451.054 1011.64C453.999 1008.69 457.99 1007.03 462.155 1007.02H587.899C592.064 1007.03 596.055 1008.69 599 1011.64C601.945 1014.58 603.605 1018.57 603.617 1022.74V1158.31Z" fill="#3F3D56"/>
<path d="M582.498 1020.78H467.559C466.616 1020.71 465.67 1020.84 464.779 1021.16C463.888 1021.47 463.072 1021.97 462.381 1022.61C461.69 1023.26 461.139 1024.04 460.763 1024.9C460.386 1025.77 460.191 1026.71 460.191 1027.65C460.191 1028.6 460.386 1029.53 460.763 1030.4C461.139 1031.27 461.69 1032.05 462.381 1032.69C463.072 1033.34 463.888 1033.83 464.779 1034.15C465.67 1034.46 466.616 1034.59 467.559 1034.53H582.498C583.441 1034.59 584.387 1034.46 585.278 1034.15C586.168 1033.83 586.985 1033.34 587.676 1032.69C588.367 1032.05 588.918 1031.27 589.294 1030.4C589.671 1029.53 589.865 1028.6 589.865 1027.65C589.865 1026.71 589.671 1025.77 589.294 1024.9C588.918 1024.04 588.367 1023.26 587.676 1022.61C586.985 1021.97 586.168 1021.47 585.278 1021.16C584.387 1020.84 583.441 1020.71 582.498 1020.78V1020.78Z" fill="#3F3D56"/>
<path d="M1062.28 1319.66C1059.04 1319.66 1056.38 1324.47 1056.38 1330.46C1056.38 1336.45 1059.04 1341.27 1062.28 1341.27C1065.52 1341.27 1068.17 1336.45 1068.17 1330.46C1068.17 1324.47 1065.52 1319.66 1062.28 1319.66Z" fill="#3F3D56"/>
<path d="M1019.05 1319.66C1015.81 1319.66 1013.16 1324.47 1013.16 1330.46C1013.16 1336.45 1015.81 1341.27 1019.05 1341.27C1022.3 1341.27 1024.95 1336.45 1024.95 1330.46C1024.95 1324.47 1022.3 1319.66 1019.05 1319.66Z" fill="#3F3D56"/>
<path d="M1041.54 1138.03C1009.55 1138.03 978.271 1147.51 951.669 1165.29C925.066 1183.06 904.333 1208.33 892.089 1237.89C879.845 1267.44 876.642 1299.97 882.884 1331.35C889.125 1362.73 904.532 1391.55 927.155 1414.17C949.779 1436.8 978.602 1452.2 1009.98 1458.45C1041.36 1464.69 1073.89 1461.48 1103.45 1449.24C1133 1437 1158.27 1416.26 1176.04 1389.66C1193.82 1363.06 1203.31 1331.78 1203.31 1299.79C1203.31 1256.89 1186.26 1215.74 1155.93 1185.41C1125.59 1155.07 1084.44 1138.03 1041.54 1138.03ZM965.897 1294.29L974.837 1246.74C977.146 1233.82 983.138 1223.66 994.386 1223.66H1011.28L1012.27 1219.78C1013.13 1216.39 1015.09 1213.39 1017.85 1211.24C1020.61 1209.1 1024 1207.94 1027.49 1207.94H1055.49C1058.98 1207.94 1062.36 1209.09 1065.12 1211.23C1067.88 1213.36 1069.85 1216.35 1070.72 1219.73L1071.7 1223.66H1088.69C1099.7 1223.66 1105.54 1233.63 1108.29 1246.69V1246.74L1117.28 1294.34C1117.35 1294.69 1117.32 1295.06 1117.2 1295.4C1117.07 1295.74 1116.86 1296.04 1116.57 1296.26C1116.29 1296.49 1115.94 1296.63 1115.58 1296.67C1115.22 1296.71 1114.86 1296.65 1114.53 1296.5L1102.05 1290.75C1101.76 1290.63 1101.5 1290.44 1101.31 1290.19C1101.11 1289.94 1100.98 1289.64 1100.93 1289.33L1092.97 1247.28C1091.49 1241.88 1089.43 1239.42 1085.06 1239.42H998.07C993.748 1239.42 991.39 1242.03 990.162 1247.28L982.205 1289.33C982.144 1289.64 982.01 1289.93 981.813 1290.18C981.617 1290.43 981.364 1290.62 981.075 1290.75L968.648 1296.45C968.319 1296.6 967.956 1296.65 967.598 1296.61C967.24 1296.57 966.9 1296.43 966.617 1296.2C966.333 1295.98 966.116 1295.68 965.989 1295.35C965.862 1295.01 965.83 1294.64 965.897 1294.29V1294.29ZM1139.14 1324.89L1112.27 1391.64C1098.76 1391.64 1084.42 1380.84 1084.42 1380.84C1075.58 1385.31 1058.34 1389.24 1045.47 1389.97C1044.09 1390.02 1042.77 1390.07 1041.54 1390.07C1040.31 1390.07 1038.99 1390.07 1037.61 1389.97C1024.74 1389.24 1007.5 1385.26 998.66 1380.84C998.66 1380.84 984.317 1391.64 970.809 1391.64L943.941 1324.89C943.527 1323.84 943.31 1322.73 943.303 1321.6C943.303 1319.9 943.789 1318.24 944.703 1316.82C945.617 1315.39 946.921 1314.25 948.46 1313.54L1039.87 1271.55C1040.38 1271.3 1040.95 1271.18 1041.52 1271.18C1042.08 1271.18 1042.65 1271.3 1043.16 1271.55L1134.62 1313.54C1136.16 1314.25 1137.46 1315.39 1138.38 1316.82C1139.29 1318.24 1139.78 1319.9 1139.78 1321.6C1139.77 1322.73 1139.55 1323.84 1139.14 1324.89V1324.89Z" fill="#3F3D56"/>
<path d="M1824.82 647.057C1792.83 647.057 1761.55 656.544 1734.95 674.319C1708.35 692.094 1687.62 717.358 1675.37 746.917C1663.13 776.475 1659.93 809.001 1666.17 840.38C1672.41 871.759 1687.82 900.583 1710.44 923.206C1733.06 945.829 1761.89 961.236 1793.26 967.477C1824.64 973.719 1857.17 970.516 1886.73 958.272C1916.29 946.029 1941.55 925.295 1959.33 898.693C1977.1 872.091 1986.59 840.815 1986.59 808.821C1986.59 765.919 1969.55 724.773 1939.21 694.437C1908.87 664.1 1867.73 647.057 1824.82 647.057V647.057ZM1899.34 824.588C1897.67 824.588 1892.12 824.539 1890.5 824.441L1858.62 823.606C1858.46 823.602 1858.29 823.641 1858.15 823.718C1858 823.795 1857.88 823.909 1857.79 824.048L1809.95 895.565C1809.24 896.681 1808.26 897.6 1807.1 898.236C1805.94 898.871 1804.64 899.203 1803.32 899.2H1791.67C1788.92 899.2 1787.99 896.449 1788.97 893.895L1813.58 823.704C1813.64 823.559 1813.66 823.401 1813.64 823.246C1813.62 823.091 1813.57 822.942 1813.48 822.812C1813.4 822.682 1813.28 822.574 1813.14 822.499C1813.01 822.423 1812.85 822.382 1812.7 822.378L1752.92 821.052C1752.3 821.038 1751.68 821.168 1751.12 821.432C1750.56 821.697 1750.06 822.088 1749.68 822.575L1731.16 845.022C1730.42 845.953 1729.48 846.706 1728.41 847.224C1727.34 847.743 1726.16 848.014 1724.97 848.018H1716.77C1716.45 848.021 1716.14 847.949 1715.86 847.807C1715.58 847.665 1715.34 847.457 1715.16 847.202C1714.97 846.946 1714.86 846.651 1714.81 846.34C1714.77 846.029 1714.8 845.711 1714.9 845.415L1724.68 811.67C1725.41 809.792 1725.41 807.704 1724.68 805.825L1714.9 772.081C1714.8 771.784 1714.77 771.467 1714.81 771.156C1714.86 770.845 1714.97 770.549 1715.16 770.294C1715.34 770.038 1715.58 769.831 1715.86 769.689C1716.14 769.546 1716.45 769.474 1716.77 769.477H1725.02C1726.21 769.47 1727.39 769.737 1728.46 770.256C1729.54 770.776 1730.48 771.534 1731.21 772.474L1749.38 794.577C1749.77 795.068 1750.26 795.461 1750.82 795.726C1751.39 795.991 1752 796.119 1752.63 796.1L1812.75 795.215C1812.9 795.215 1813.06 795.175 1813.2 795.101C1813.34 795.026 1813.45 794.919 1813.54 794.788C1813.63 794.657 1813.68 794.506 1813.7 794.35C1813.71 794.193 1813.69 794.035 1813.63 793.889L1789.02 723.748C1788.04 721.194 1788.97 718.443 1791.72 718.443H1803.37C1804.69 718.445 1805.99 718.78 1807.14 719.415C1808.3 720.05 1809.28 720.965 1810 722.078L1857.79 793.644C1857.87 793.787 1858 793.904 1858.14 793.982C1858.29 794.06 1858.46 794.096 1858.62 794.086L1890.5 793.251C1892.07 793.153 1897.67 793.104 1899.34 793.104C1921.15 793.104 1934.86 800.177 1934.86 808.871C1934.86 817.564 1921.1 824.588 1899.34 824.588Z" fill="#3F3D56"/>
<path d="M1535.35 1873.06C1503.35 1873.06 1472.08 1882.55 1445.48 1900.32C1418.88 1918.1 1398.14 1943.36 1385.9 1972.92C1373.65 2002.48 1370.45 2035 1376.69 2066.38C1382.93 2097.76 1398.34 2126.59 1420.96 2149.21C1443.59 2171.83 1472.41 2187.24 1503.79 2193.48C1535.17 2199.72 1567.7 2196.52 1597.25 2184.28C1626.81 2172.03 1652.08 2151.3 1669.85 2124.7C1687.63 2098.09 1697.11 2066.82 1697.11 2034.82C1697.11 1991.92 1680.07 1950.78 1649.73 1920.44C1619.4 1890.1 1578.25 1873.06 1535.35 1873.06V1873.06ZM1609.87 2050.59C1608.2 2050.59 1602.65 2050.54 1601.03 2050.44L1569.15 2049.61C1568.98 2049.6 1568.82 2049.64 1568.67 2049.72C1568.53 2049.8 1568.4 2049.91 1568.31 2050.05L1520.47 2121.57C1519.76 2122.68 1518.78 2123.6 1517.62 2124.24C1516.47 2124.87 1515.16 2125.21 1513.84 2125.2H1502.2C1499.45 2125.2 1498.52 2122.45 1499.5 2119.9L1524.11 2049.71C1524.16 2049.56 1524.18 2049.4 1524.17 2049.25C1524.15 2049.09 1524.1 2048.94 1524.01 2048.81C1523.92 2048.68 1523.81 2048.58 1523.67 2048.5C1523.53 2048.43 1523.38 2048.38 1523.22 2048.38L1463.45 2047.05C1462.82 2047.04 1462.21 2047.17 1461.65 2047.44C1461.08 2047.7 1460.59 2048.09 1460.2 2048.58L1441.69 2071.02C1440.94 2071.96 1440 2072.71 1438.93 2073.23C1437.86 2073.75 1436.69 2074.02 1435.5 2074.02H1427.29C1426.98 2074.02 1426.67 2073.95 1426.39 2073.81C1426.11 2073.67 1425.87 2073.46 1425.68 2073.2C1425.5 2072.95 1425.38 2072.65 1425.34 2072.34C1425.29 2072.03 1425.32 2071.71 1425.43 2071.42L1435.2 2037.67C1435.94 2035.79 1435.94 2033.71 1435.2 2031.83L1425.43 1998.08C1425.32 1997.79 1425.29 1997.47 1425.34 1997.16C1425.38 1996.85 1425.5 1996.55 1425.68 1996.3C1425.87 1996.04 1426.11 1995.83 1426.39 1995.69C1426.67 1995.55 1426.98 1995.48 1427.29 1995.48H1435.55C1436.74 1995.47 1437.92 1995.74 1438.99 1996.26C1440.06 1996.78 1441 1997.54 1441.73 1998.48L1459.91 2020.58C1460.29 2021.07 1460.78 2021.46 1461.35 2021.73C1461.91 2021.99 1462.53 2022.12 1463.15 2022.1L1523.27 2021.22C1523.43 2021.22 1523.58 2021.18 1523.72 2021.1C1523.86 2021.03 1523.98 2020.92 1524.07 2020.79C1524.15 2020.66 1524.21 2020.51 1524.22 2020.35C1524.24 2020.2 1524.22 2020.04 1524.16 2019.89L1499.55 1949.75C1498.57 1947.2 1499.5 1944.45 1502.25 1944.45H1513.89C1515.21 1944.45 1516.51 1944.78 1517.67 1945.42C1518.83 1946.05 1519.81 1946.97 1520.52 1948.08L1568.31 2019.65C1568.4 2019.79 1568.52 2019.91 1568.67 2019.98C1568.82 2020.06 1568.98 2020.1 1569.15 2020.09L1601.03 2019.25C1602.6 2019.16 1608.2 2019.11 1609.87 2019.11C1631.68 2019.11 1645.38 2026.18 1645.38 2034.87C1645.38 2043.57 1631.63 2050.59 1609.87 2050.59Z" fill="#3F3D56"/>
<path d="M549.638 1637.76C542.902 1637.76 536.318 1635.77 530.717 1632.02C525.117 1628.28 520.752 1622.96 518.174 1616.74C515.597 1610.52 514.922 1603.67 516.236 1597.06C517.55 1590.46 520.794 1584.39 525.557 1579.63C530.32 1574.86 536.388 1571.62 542.994 1570.31C549.6 1568.99 556.448 1569.67 562.67 1572.24C568.893 1574.82 574.212 1579.19 577.954 1584.79C581.696 1590.39 583.694 1596.97 583.694 1603.71C583.683 1612.74 580.092 1621.39 573.708 1627.78C567.323 1634.16 558.667 1637.75 549.638 1637.76ZM549.638 1575.33C544.025 1575.33 538.538 1576.99 533.871 1580.11C529.204 1583.23 525.566 1587.66 523.418 1592.85C521.27 1598.03 520.708 1603.74 521.803 1609.24C522.898 1614.75 525.601 1619.81 529.57 1623.78C533.539 1627.74 538.596 1630.45 544.101 1631.54C549.606 1632.64 555.313 1632.08 560.498 1629.93C565.684 1627.78 570.116 1624.14 573.235 1619.47C576.353 1614.81 578.018 1609.32 578.018 1603.71C578.009 1596.18 575.017 1588.97 569.696 1583.65C564.376 1578.33 557.162 1575.34 549.638 1575.33V1575.33Z" fill="#F0F0F0"/>
<path d="M1267.65 874.35C1260.91 874.35 1254.33 872.352 1248.73 868.61C1243.13 864.868 1238.76 859.549 1236.18 853.327C1233.61 847.104 1232.93 840.256 1234.25 833.65C1235.56 827.044 1238.8 820.976 1243.57 816.213C1248.33 811.45 1254.4 808.207 1261 806.893C1267.61 805.579 1274.46 806.253 1280.68 808.831C1286.9 811.408 1292.22 815.773 1295.96 821.374C1299.71 826.974 1301.7 833.558 1301.7 840.294C1301.69 849.323 1298.1 857.979 1291.72 864.364C1285.33 870.748 1276.68 874.339 1267.65 874.35V874.35ZM1267.65 811.914C1262.03 811.914 1256.55 813.579 1251.88 816.697C1247.21 819.816 1243.58 824.248 1241.43 829.434C1239.28 834.619 1238.72 840.325 1239.81 845.831C1240.91 851.336 1243.61 856.392 1247.58 860.361C1251.55 864.33 1256.61 867.033 1262.11 868.128C1267.62 869.223 1273.32 868.661 1278.51 866.513C1283.69 864.365 1288.13 860.728 1291.24 856.061C1294.36 851.394 1296.03 845.907 1296.03 840.294C1296.02 832.77 1293.03 825.556 1287.71 820.236C1282.39 814.915 1275.17 811.923 1267.65 811.914Z" fill="#F0F0F0"/>
<path d="M1901.86 1809.09L1863.65 1768.12L1904.62 1729.91L1942.83 1770.88L1901.86 1809.09ZM1869.74 1768.33L1902.07 1803L1936.74 1770.67L1904.4 1736L1869.74 1768.33Z" fill="#F0F0F0"/>
<path d="M1670.1 1153.74C1670.1 1163.46 1668.32 1172.75 1665.07 1181.32C1653.92 1210.59 1625.61 1231.39 1592.44 1231.39C1558.49 1231.39 1529.64 1209.61 1519.07 1179.25C1456.35 1183.76 1420.49 1155.73 1405.57 1102.3C1367.9 1092.05 1340.21 1057.61 1340.21 1016.7C1340.21 990.235 1351.8 966.473 1370.18 950.23C1385.82 936.385 1406.39 927.986 1428.92 927.986C1454.74 927.986 1477.99 939.008 1494.18 956.626C1505.07 949.504 1518.08 945.377 1532.06 945.377C1541.82 945.377 1551.12 947.395 1559.54 951.034C1583.92 961.556 1601.06 985.658 1601.44 1013.81C1601.46 1014.14 1601.46 1014.46 1601.46 1014.79L1601.44 1015.96V1015.97C1604.99 1015.2 1608.67 1014.79 1612.45 1014.79C1629.36 1014.79 1644.38 1022.88 1653.84 1035.41H1653.86C1660.42 1044.1 1664.31 1054.92 1664.31 1066.66C1664.34 1078.83 1660.05 1090.62 1652.21 1099.93C1651.62 1100.64 1651.01 1101.34 1650.37 1102.02C1662.65 1115.75 1670.1 1133.88 1670.1 1153.74" fill="#FF5CAA"/>
<path d="M1494.18 956.625C1484.2 963.124 1476 972.131 1470.48 982.759M1531.21 1010.43C1517.16 1025.7 1508.58 1046.09 1508.58 1068.48C1508.58 1115.83 1546.96 1154.21 1594.31 1154.21C1600.42 1154.21 1606.51 1153.57 1612.48 1152.28L1531.21 1010.43ZM1425.18 982.759C1427.33 1013.72 1453.13 1038.18 1484.64 1038.18L1425.18 982.759ZM1579.41 1026.68C1585.79 1021.38 1593.35 1017.71 1601.45 1015.97L1579.41 1026.68Z" stroke="#103849" stroke-width="10.667" stroke-miterlimit="10" stroke-linecap="round" stroke-linejoin="round"/>
<path d="M1670.1 1153.74C1670.1 1196.63 1635.33 1231.39 1592.44 1231.39C1558.49 1231.39 1529.64 1209.61 1519.07 1179.25C1456.35 1183.76 1420.49 1155.73 1405.57 1102.3C1367.9 1092.06 1340.21 1057.61 1340.21 1016.7C1340.21 967.702 1379.93 927.987 1428.92 927.987C1454.74 927.987 1477.99 939.008 1494.18 956.626C1505.07 949.505 1518.08 945.377 1532.06 945.377C1570.39 945.377 1601.46 976.457 1601.46 1014.79L1601.44 1015.96V1015.97C1604.99 1015.2 1608.67 1014.79 1612.45 1014.79C1641.09 1014.79 1664.31 1038.01 1664.31 1066.66C1664.31 1080.33 1659.03 1092.75 1650.37 1102.02C1662.65 1115.75 1670.1 1133.88 1670.1 1153.74L1670.1 1153.74Z" stroke="#103849" stroke-width="9.333" stroke-miterlimit="10" stroke-linejoin="round"/>
<path d="M1418.8 1242.85C1415.4 1235.74 1413.22 1228.12 1412.36 1220.3M1650.37 1102.02C1650.37 1102.02 1644.35 1095.77 1636.12 1089.27L1650.37 1102.02Z" stroke="#103849" stroke-width="10.667" stroke-miterlimit="10" stroke-linecap="round" stroke-linejoin="round"/>
<path d="M1571.08 1188.84C1573.83 1196.45 1575.23 1204.49 1575.22 1212.59C1575.22 1254.23 1538.67 1287.97 1493.57 1287.97C1460.14 1287.97 1431.4 1269.41 1418.8 1242.85C1408.41 1249.9 1395.95 1254.01 1382.56 1254.01C1352.56 1254.01 1327.24 1233.37 1319.3 1205.12C1313.63 1206.54 1307.82 1207.25 1301.98 1207.25C1262.78 1207.25 1230.98 1175.47 1230.98 1136.25C1230.98 1106.14 1249.75 1080.4 1276.22 1070.1C1275.18 1065.79 1274.63 1061.32 1274.63 1056.73C1274.63 1021.17 1307.67 992.345 1348.44 992.345C1371.85 992.345 1392.73 1001.86 1406.25 1016.68C1417.09 1010.87 1429.59 1007.54 1442.9 1007.54C1484.21 1007.54 1517.7 1039.56 1517.7 1079.07C1517.71 1080 1517.68 1080.93 1517.64 1081.86C1551.72 1088.11 1577.63 1119.42 1577.63 1157.1C1577.63 1168.43 1575.3 1179.17 1571.08 1188.84" fill="#FF5CAA"/>
<path d="M1406.25 1016.68C1396.98 1021.69 1388.94 1028.53 1382.65 1036.68M1544.59 1153.74C1556.76 1162.73 1566.07 1174.89 1571.08 1188.84L1544.59 1153.74ZM1319.3 1205.12C1317.61 1199.13 1316.72 1192.82 1316.72 1186.28C1316.72 1159.59 1331.74 1136.5 1353.55 1125.47L1319.3 1205.12ZM1294.71 1065.64C1288.25 1066.3 1282.05 1067.82 1276.22 1070.1L1294.71 1065.64ZM1406.26 1016.7L1406.25 1016.68L1406.26 1016.7Z" stroke="#103849" stroke-width="10.667" stroke-miterlimit="10" stroke-linecap="round" stroke-linejoin="round"/>
<path d="M1571.08 1188.84C1573.83 1196.45 1575.23 1204.49 1575.22 1212.59C1575.22 1254.23 1538.67 1287.97 1493.58 1287.97C1460.14 1287.97 1431.41 1269.41 1418.8 1242.85C1408.41 1249.9 1395.95 1254.01 1382.57 1254.01C1352.56 1254.01 1327.24 1233.37 1319.3 1205.12C1313.64 1206.54 1307.82 1207.25 1301.98 1207.25C1262.78 1207.25 1230.99 1175.47 1230.99 1136.25C1230.99 1106.14 1249.75 1080.4 1276.23 1070.1C1275.18 1065.79 1274.63 1061.32 1274.63 1056.73C1274.63 1021.17 1307.67 992.345 1348.44 992.345C1371.85 992.345 1392.73 1001.86 1406.25 1016.68C1417.09 1010.87 1429.59 1007.54 1442.9 1007.54C1484.21 1007.54 1517.7 1039.56 1517.7 1079.07C1517.71 1080 1517.69 1080.93 1517.64 1081.86C1551.72 1088.11 1577.63 1119.42 1577.63 1157.1C1577.63 1168.43 1575.3 1179.17 1571.08 1188.84L1571.08 1188.84Z" stroke="#103849" stroke-width="9.333" stroke-miterlimit="10" stroke-linejoin="round"/>
<path d="M1512.94 1171.68C1502.6 1184.62 1486.68 1192.9 1468.82 1192.9C1437.64 1192.9 1412.36 1167.62 1412.36 1136.44C1412.34 1123.42 1416.84 1110.8 1425.09 1100.73M1453.84 1103.1C1466.97 1089.29 1485.1 1080.73 1505.11 1080.73C1509.39 1080.73 1513.57 1081.11 1517.64 1081.86L1453.84 1103.1Z" stroke="#103849" stroke-width="10.667" stroke-miterlimit="10" stroke-linecap="round" stroke-linejoin="round"/>
<path d="M1576.51 1081.57C1582.42 1077.16 1589.6 1074.79 1596.98 1074.8C1599.03 1074.8 1601.07 1074.98 1603.09 1075.34M1493.79 1220.85C1493.79 1209.76 1490.99 1199.33 1486.06 1190.22L1493.79 1220.85ZM1375.79 1184.79C1385.1 1171 1399.59 1161.02 1416.48 1157.63L1375.79 1184.79ZM1275.13 1136.29C1282.28 1133.46 1289.91 1132 1297.6 1132.01C1309.94 1131.99 1321.98 1135.73 1332.13 1142.74L1275.13 1136.29ZM1391.21 1084.33C1387.37 1085.46 1383.3 1086.06 1379.09 1086.06C1367.92 1086.08 1357.19 1081.72 1349.2 1073.92L1391.21 1084.33Z" stroke="#103849" stroke-width="10.667" stroke-miterlimit="10" stroke-linecap="round" stroke-linejoin="round"/>
<path d="M1656.46 1102.05C1664.53 1092.04 1668.93 1079.62 1668.93 1066.66C1668.93 1035.51 1643.6 1010.17 1612.46 1010.17C1610.28 1010.17 1608.11 1010.3 1605.95 1010.55C1603.75 971.694 1571.45 940.763 1532.06 940.763C1518.93 940.763 1506.17 944.201 1494.93 950.74C1477.42 933.24 1453.68 923.398 1428.93 923.372C1387.43 923.372 1352.19 950.602 1340.09 988.125C1300.76 991.805 1270.01 1021.17 1270.01 1056.73C1270.01 1060.27 1270.32 1063.82 1270.93 1067.31C1243.73 1079.5 1226.37 1106.15 1226.37 1136.25C1226.37 1177.94 1260.29 1211.86 1301.98 1211.86C1306.74 1211.86 1311.49 1211.42 1316.17 1210.53C1326.06 1239.06 1352.78 1258.63 1382.57 1258.63C1394.65 1258.64 1406.53 1255.46 1417 1249.41C1431.74 1275.8 1461.22 1292.58 1493.57 1292.58C1532.97 1292.58 1566.25 1267.96 1576.53 1234.44C1581.71 1235.46 1587.03 1236 1592.44 1236C1637.81 1236 1674.72 1199.1 1674.72 1153.74C1674.72 1134.84 1668.26 1116.64 1656.46 1102.05V1102.05Z" stroke="#103849" stroke-width="18.667" stroke-miterlimit="10" stroke-linejoin="round"/>
<path d="M1428.93 897C1404.55 897 1381.1 904.259 1361.12 917.99C1343.86 929.846 1330.19 945.838 1321.15 964.616C1277.17 975.273 1245.73 1010.66 1243.74 1052.51C1216.52 1071.41 1200 1102.62 1200 1136.25C1200 1191.89 1244.8 1237.27 1300.21 1238.22C1317.71 1266.97 1348.91 1285 1382.57 1285C1391.17 1285 1399.62 1283.86 1407.81 1281.6C1429.03 1305.19 1460.19 1318.95 1493.58 1318.95C1516.19 1318.95 1538.09 1312.54 1556.92 1300.41C1572.22 1290.56 1584.55 1277.55 1593.08 1262.37C1652.7 1262.03 1701.09 1213.43 1701.09 1153.74C1701.09 1135.3 1696.48 1117.4 1687.66 1101.4C1692.7 1090.51 1695.31 1078.66 1695.3 1066.66C1695.3 1044.93 1686.93 1024.38 1671.72 1008.8C1659.73 996.516 1644.54 988.4 1628.02 985.259C1622.44 967.132 1611.75 950.798 1597.13 938.35C1578.97 922.893 1555.91 914.4 1532.07 914.389C1520.95 914.389 1509.8 916.275 1499.29 919.889C1478.87 905.065 1454.26 897 1428.93 897ZM1428.93 914.141C1453.64 914.141 1477.88 923.319 1496.44 939.524C1507.58 934.259 1519.74 931.529 1532.06 931.532C1573.09 931.532 1607.54 961.37 1614.16 1000.96C1649.6 1001.87 1678.16 1030.99 1678.16 1066.66C1678.15 1079.16 1674.58 1091.39 1667.88 1101.94C1678.28 1117.1 1683.95 1135.24 1683.95 1153.74C1683.95 1204.19 1642.9 1245.23 1592.44 1245.23C1589.18 1245.23 1585.9 1245.06 1582.64 1244.7C1568.56 1278.7 1533.07 1301.81 1493.57 1301.81C1461 1301.81 1431.15 1286.54 1413.64 1261.42C1403.83 1265.66 1393.25 1267.86 1382.57 1267.86C1351.43 1267.86 1323.26 1249.19 1310.3 1220.69C1307.53 1220.96 1304.75 1221.09 1301.98 1221.09C1255.2 1221.09 1217.14 1183.03 1217.14 1136.25C1217.14 1105.2 1234.14 1076.74 1260.98 1061.97C1260.85 1060.23 1260.79 1058.48 1260.79 1056.73C1260.79 1018.36 1291.56 986.126 1333.3 979.67C1348.55 940.235 1386.25 914.141 1428.93 914.141" fill="#F0F0F0"/>
</svg>