<svg width="601" height="614" viewBox="0 0 601 614" fill="none" xmlns="http://www.w3.org/2000/svg">
<path d="M113.8 180.227C113.8 180.227 86.5369 191.012 82.5276 217.208C78.5183 243.405 140.469 320.142 140.469 320.142L331.519 217.192L271.115 111.188L113.8 180.227Z" fill="#C7DCF9"/>
<path d="M156.041 204.988C156.041 204.988 135.939 225.628 129.773 248.465C123.606 271.302 122.813 312.084 123.839 327.359C153.828 355.111 272.366 331.858 272.366 331.858L386.598 197.483C386.598 197.483 367.233 160.718 357.402 150.639C347.572 140.56 315.706 128.027 278.941 142.821C257.363 173.444 156.041 204.988 156.041 204.988Z" fill="#E1ECFF"/>
<g style="mix-blend-mode:multiply">
<path d="M147.069 215.661C147.069 215.661 191.419 229.894 241.342 210.61C291.266 191.325 300.311 137.008 300.311 137.008L278.917 142.829L156.041 204.989L147.069 215.661Z" fill="#E1ECFF"/>
</g>
<path d="M327.613 382.277C327.613 382.277 383.687 382.638 399.443 386.663C415.2 390.689 456.904 485.075 474.16 494.111C491.416 503.148 506.073 488.138 525.085 476.992C544.097 465.846 561.521 452.359 562.067 446.73C562.612 441.101 554.537 418.609 547.553 414.071C540.569 409.532 520.29 409.211 509.473 416.139C493.581 372.839 470.984 309.694 450.265 301.002C429.545 292.309 366.752 288.172 366.752 288.172L327.613 382.277Z" fill="#E1ECFF"/>
<g style="mix-blend-mode:multiply" opacity="0.51">
<path d="M386.598 340.95C386.598 340.95 432.255 345.946 444.868 362.937C457.482 379.928 482.475 483.896 510.452 486.358C510.901 520.036 452.959 532.2 452.959 532.2L314.07 377.875L386.598 340.95Z" fill="#E1ECFF"/>
</g>
<path d="M176.962 373.761C176.962 373.761 211.442 446.08 242.714 465.806C273.986 485.531 330.645 483.936 346.273 496.854C361.901 509.771 358.597 571.827 374.217 588.265C389.838 604.703 411.816 614.774 432.36 612.922C452.903 611.069 469.341 601.215 469.55 591.969C469.758 582.724 468.932 574.705 459.278 569.774C449.624 564.843 436.024 560.737 435.439 554.988C434.854 549.239 423.932 461.708 419.402 437.918C414.871 414.127 379.686 381.034 334.341 364.364C291.402 328.409 225.45 343.812 225.45 343.812L176.962 373.761Z" fill="#E1ECFF"/>
<g style="mix-blend-mode:multiply">
<path d="M186.993 393.11C186.993 393.11 226.564 395.131 262.103 379.519C255.311 343.355 234.358 332.675 234.358 332.675L176.962 373.762L186.993 393.11Z" fill="#E1ECFF"/>
</g>
<path d="M241.751 15.4462C210.76 -1.14415 145.81 -6.74106 105.717 42.9818C65.6247 92.7046 85.6069 144.272 102.454 168.279C120.095 193.473 180.731 231.978 245.448 195.815C310.166 159.651 316.949 55.7152 241.751 15.4462Z" fill="#E1ECFF"/>
<path d="M236.419 45.8522C263.946 52.4274 281.828 91.0526 272.582 128.034C263.337 165.015 231.487 189.881 195.741 190.081C159.994 190.282 124.448 165.873 124.641 120.232C124.833 76.3707 176.641 31.5792 236.419 45.8522Z" fill="#1C3177"/>
<g style="mix-blend-mode:multiply">
<path d="M157.108 334.728C192.974 318.081 166.145 280.074 201.899 271.43C249.04 278.133 262.078 275.728 262.078 275.728C262.078 275.728 171.894 354.935 157.108 334.728Z" fill="#E1ECFF"/>
</g>
<path d="M186.993 233.069L246.683 386.664L331.126 384.652L408.376 335.755L431.389 265.897L375.508 98.2461L348.382 176.731L278.115 232.612L186.993 233.069Z" fill="#FF97C9"/>
<path d="M157.108 334.728C176.897 333.125 186.977 320.239 192.975 314.522C196.03 311.603 195.42 309.045 193.881 300.626C192.341 292.206 197.681 283.57 204.978 279.874C208.987 290.659 213.911 292.703 217.712 292.198C221.512 291.693 225.417 268.984 237.846 269.185C250.275 269.385 260.242 285.831 261.902 294.042C263.562 302.253 255.535 325.675 245.464 342.113C235.392 358.551 221.184 378.902 189.198 385.269C157.212 391.636 139.026 375.302 128.546 354.654C125.01 347.686 123.735 338.056 123.847 327.327C123.847 327.327 131.007 336.781 157.108 334.728Z" fill="#E1ECFF"/>
<path d="M394.753 155.987C394.753 155.987 398.562 168.375 395.996 173.202C393.43 178.03 389.934 182.023 387.368 188.205C384.802 194.387 388.603 217.689 399.901 221.69C411.199 225.692 420.549 215.219 423.531 209.157C426.514 203.095 424.862 187.179 420.444 176.081C416.026 164.983 407.719 155.121 394.753 155.987Z" fill="#E1ECFF"/>
<path d="M407.743 2.06345L410.277 7.1953C410.428 7.50626 410.654 7.77545 410.933 7.97948C411.213 8.18351 411.538 8.3162 411.88 8.366L417.549 9.16786C417.946 9.22462 418.318 9.39135 418.624 9.64914C418.931 9.90694 419.159 10.2454 419.282 10.6262C419.406 11.007 419.42 11.4149 419.324 11.8034C419.227 12.1919 419.023 12.5456 418.736 12.8243L414.639 16.8336C414.39 17.075 414.203 17.3735 414.096 17.7033C413.988 18.033 413.962 18.3841 414.021 18.7259L414.983 24.3389C415.051 24.7325 415.008 25.1373 414.858 25.5076C414.708 25.8778 414.457 26.1987 414.135 26.434C413.812 26.6692 413.43 26.8094 413.031 26.8388C412.633 26.8682 412.234 26.7855 411.88 26.6001L406.804 23.938C406.498 23.7758 406.157 23.691 405.81 23.691C405.464 23.691 405.122 23.7758 404.816 23.938L399.74 26.6001C399.386 26.7877 398.986 26.8722 398.587 26.8439C398.187 26.8156 397.803 26.6757 397.479 26.4401C397.155 26.2046 396.903 25.8827 396.753 25.5113C396.603 25.1398 396.56 24.7336 396.629 24.3389L397.599 18.7259C397.658 18.3841 397.632 18.033 397.525 17.7033C397.417 17.3735 397.231 17.075 396.982 16.8336L392.884 12.8243C392.597 12.5456 392.393 12.1919 392.297 11.8034C392.2 11.4149 392.215 11.007 392.338 10.6262C392.462 10.2454 392.69 9.90694 392.996 9.64914C393.302 9.39135 393.675 9.22462 394.071 9.16786L399.74 8.366C400.083 8.3162 400.408 8.18351 400.687 7.97948C400.967 7.77545 401.192 7.50626 401.344 7.1953L403.878 2.06345C404.054 1.70098 404.329 1.3954 404.67 1.18163C405.012 0.967852 405.407 0.854492 405.81 0.854492C406.213 0.854492 406.608 0.967852 406.95 1.18163C407.292 1.3954 407.566 1.70098 407.743 2.06345Z" fill="#FEC272"/>
<path d="M136.46 545.15L138.585 549.456C138.711 549.717 138.901 549.943 139.136 550.114C139.371 550.285 139.644 550.395 139.932 550.434L144.687 551.124C145.018 551.172 145.33 551.313 145.586 551.529C145.842 551.745 146.032 552.028 146.135 552.347C146.239 552.665 146.251 553.006 146.171 553.332C146.091 553.657 145.921 553.953 145.681 554.187L142.241 557.539C142.03 557.743 141.873 557.996 141.783 558.276C141.694 558.556 141.675 558.854 141.728 559.142L142.53 563.873C142.585 564.203 142.547 564.542 142.421 564.852C142.294 565.162 142.084 565.431 141.813 565.628C141.543 565.825 141.223 565.943 140.889 565.969C140.556 565.995 140.221 565.927 139.924 565.774L135.674 563.537C135.417 563.402 135.131 563.332 134.84 563.332C134.55 563.332 134.264 563.402 134.006 563.537L129.772 565.758C129.475 565.914 129.14 565.984 128.805 565.96C128.47 565.936 128.149 565.818 127.877 565.62C127.606 565.422 127.395 565.152 127.27 564.84C127.144 564.529 127.108 564.188 127.166 563.857L127.968 559.126C128.018 558.837 127.996 558.54 127.906 558.26C127.815 557.981 127.657 557.728 127.447 557.523L124.015 554.171C123.775 553.937 123.606 553.641 123.525 553.316C123.445 552.99 123.457 552.649 123.561 552.331C123.664 552.012 123.855 551.729 124.111 551.513C124.367 551.296 124.678 551.156 125.009 551.108L129.756 550.418C130.045 550.378 130.319 550.268 130.555 550.097C130.792 549.927 130.982 549.701 131.112 549.44L133.236 545.134C133.386 544.834 133.617 544.581 133.903 544.405C134.188 544.229 134.518 544.137 134.853 544.139C135.189 544.14 135.517 544.236 135.801 544.415C136.085 544.594 136.313 544.848 136.46 545.15Z" fill="#FEC272"/>
<g style="mix-blend-mode:soft-light" opacity="0.48">
<path d="M212.39 91.9572C232.124 87.6076 246.874 78.4231 245.336 71.4431C243.797 64.463 226.553 62.3306 206.819 66.6801C187.085 71.0297 172.335 80.2141 173.874 87.1942C175.412 94.1743 192.657 96.3067 212.39 91.9572Z" fill="white"/>
</g>
<g style="mix-blend-mode:multiply">
<path d="M257.331 317.071C257.331 317.071 234.631 296.784 230.517 296.784C226.404 296.784 215.451 312.821 217.92 317.071C220.39 321.321 233.075 335.241 247.003 339.523C251.518 330.911 257.331 317.071 257.331 317.071Z" fill="#E1ECFF"/>
</g>
<g style="mix-blend-mode:multiply" opacity="0.5">
<path d="M278.115 232.613L331.126 384.652L408.376 335.755L348.382 176.731L278.115 232.613Z" fill="#FF97C9"/>
</g>
<g style="mix-blend-mode:multiply">
<path d="M423.948 466.961C416.003 473.544 407.074 478.839 397.487 482.653C388.498 486.117 385.459 493.206 388.178 506.212C390.896 519.218 392.419 539.496 398.032 544.837C403.645 550.177 422.954 547.339 432.961 534.926C429.826 510.469 423.948 466.961 423.948 466.961Z" fill="#E1ECFF"/>
</g>
<g style="mix-blend-mode:multiply">
<path d="M476.269 334.359C476.269 334.359 465.043 339.251 466.11 347.053C467.176 354.855 478.642 392.566 483.165 395.966C487.687 399.366 501.07 393.336 501.07 393.336C487.327 354.398 476.269 334.359 476.269 334.359Z" fill="#E1ECFF"/>
</g>
<path d="M2.5347 424.6C-6.38991 406.093 22.6933 386.287 47.4384 387.714C72.1835 389.142 82.5835 411.987 91.3478 420.51C109.654 438.295 109.077 455.695 96.3995 463.177C83.7222 470.658 14.346 449.08 2.5347 424.6Z" fill="#99ADF9"/>
<path d="M501.736 137.897C494.519 131.579 501.944 101.878 518.992 94.9259C536.039 87.9738 557.208 95.5754 561.73 107.491C566.253 119.406 516.53 150.839 501.736 137.897Z" fill="#99ADF9"/>
<path d="M585.273 153.789C581.576 159.058 579.115 174.06 586.917 176.73C594.719 179.4 600.62 163.965 597.878 155.93C595.136 147.896 587.743 150.269 585.273 153.789Z" fill="#99ADF9"/>
<path opacity="0.44" d="M590.886 32.0446C585.064 34.7869 575.466 46.5741 580.919 52.7724C586.371 58.9708 599.145 48.4986 600.756 40.1673C602.368 31.8361 594.775 30.2164 590.886 32.0446Z" fill="#99ADF9"/>
<path opacity="0.44" d="M43.4772 502.467C38.4416 498.458 23.6314 495.05 20.4721 502.676C17.3128 510.301 32.3555 517.109 40.5184 514.912C48.6812 512.715 46.8289 505.145 43.4772 502.467Z" fill="#99ADF9"/>
<g style="mix-blend-mode:multiply" opacity="0.64">
<path d="M86.9616 415.434C78.0049 417.117 79.4483 425.128 82.3189 432.385C85.1895 439.642 95.2929 441.71 102.421 435.079C97.7946 424.07 86.9616 415.434 86.9616 415.434Z" fill="#99ADF9"/>
</g>
<g style="mix-blend-mode:multiply" opacity="0.64">
<path d="M35.4747 403.35C29.0599 404.064 23.8318 413.349 28.3543 420.878C32.8767 428.408 41.4966 433.893 46.428 431.84C51.3594 429.787 52.1853 418.689 48.6251 411.569C45.0649 404.448 41.641 402.66 35.4747 403.35Z" fill="#99ADF9"/>
</g>
<g style="mix-blend-mode:multiply" opacity="0.64">
<path d="M541.716 101.325C538.196 102.448 534.628 106.256 534.94 110.37C535.253 114.483 538.845 118.076 542.742 117.587C546.639 117.097 549.959 110.803 549.157 106.28C548.355 101.758 544.402 100.475 541.716 101.325Z" fill="#99ADF9"/>
</g>
<g style="mix-blend-mode:multiply" opacity="0.64">
<path d="M504.438 109.343C504.438 109.343 509.249 114.154 508.447 119.614C507.645 125.075 499.354 124.57 499.354 124.57C499.354 124.57 500.589 115.26 504.438 109.343Z" fill="#99ADF9"/>
</g>
</svg>
