<svg width="422" height="406" viewBox="0 0 422 406" fill="none" xmlns="http://www.w3.org/2000/svg">
<path d="M203.298 385C202.098 385.3 200.898 385.4 199.698 385.4C199.498 385.4 199.298 385.4 199.098 385.4C190.698 385.1 182.898 378.5 178.098 369.7C156.798 330.5 150.998 306.3 143.298 279.8C141.398 273.2 141.898 266.5 144.698 261.7C146.898 258 150.398 255.3 155.198 254.8C155.798 254.7 156.298 254.7 156.898 254.7C165.398 254.7 174.298 261.5 177.798 270.3L214.298 359.7C218.898 371 213.898 382.6 203.298 385Z" fill="#C7DCF9"/>
<path d="M199.098 385.4C190.698 385.1 182.898 378.5 178.098 369.7C156.798 330.5 150.998 306.3 143.298 279.8C141.398 273.2 141.898 266.5 144.698 261.7C154.198 284.7 185.398 360.2 194.998 377.8C196.498 380.6 197.898 383.1 199.098 385.4Z" fill="#E1ECFF"/>
<path d="M249.095 371.5C248.195 373.8 246.995 375.6 245.795 376.5C238.595 382.2 231.495 383.5 219.595 386.1C207.695 388.7 195.395 388.1 189.695 382.7C187.795 380.9 186.395 378.9 185.595 376.8C183.095 370.8 185.295 364.5 192.395 361.8C196.595 360.2 234.795 351.2 241.095 352.4C251.995 354.5 251.795 364.8 249.095 371.5Z" fill="#C7DCF9"/>
<path d="M249.094 371.5C248.194 373.8 246.994 375.6 245.794 376.5C238.594 382.2 231.494 383.5 219.594 386.1C207.694 388.7 195.394 388.1 189.694 382.7C187.794 380.9 186.394 378.9 185.594 376.8C188.794 377.7 195.194 378.9 206.094 377.7C215.294 376.7 234.194 373.8 249.094 371.5Z" fill="#C7DCF9"/>
<path d="M239.096 353.1C227.196 357.1 228.496 365 230.296 372.7C232.096 380.4 246.896 400.2 251.396 401.2C255.896 402.2 256.196 400.4 254.996 396.7C253.796 393 245.296 380.1 245.296 380.1C245.296 380.1 254.696 392.9 258.596 396.7C262.496 400.5 265.796 400.2 265.696 396C265.496 391.8 256.196 377.7 256.196 377.7C256.196 377.7 264.396 388.5 267.796 392.2C271.196 395.9 275.696 395.3 274.096 390.3C272.596 385.3 265.796 374.4 265.796 374.4C265.796 374.4 272.396 385.4 276.796 386.5C281.196 387.6 278.496 381 273.796 372.6C269.196 364 253.896 348.1 239.096 353.1Z" fill="#FEA691"/>
<path d="M229.099 364.099C229.099 364.099 226.599 373.899 228.199 382.499C229.799 391.099 232.499 392.799 234.299 393.199C236.099 393.599 236.699 391.299 235.799 387.599C234.899 383.899 237.299 376.599 237.299 376.599C237.299 376.599 234.699 361.899 229.099 364.099Z" fill="#FEA691"/>
<path d="M181.998 395.5H81.0975C81.0975 395.5 67.1975 298.3 75.9975 274.4C78.4975 267.6 81.7975 262.1 85.5975 257.5C95.0975 245.9 107.298 240.6 115.598 238.5C126.498 235.7 135.998 235.6 144.198 237.6C165.998 242.8 178.098 262.7 181.998 284.4C187.398 314.3 181.998 395.5 181.998 395.5Z" fill="#99ADF9"/>
<path d="M116.5 258C103.3 261.4 91.2 261 85.5 257.5C95 245.9 107.2 240.6 115.5 238.5C126.4 235.7 135.9 235.6 144.1 237.6C145.9 244.4 133.5 253.6 116.5 258Z" fill="#99ADF9"/>
<path d="M107.9 280.8C107.9 282.4 107.8 284 107.5 285.5C103.4 312.1 79.8 376.1 79.8 376.1C78.1 381.2 74.5 385 70.1 387.1C65.7 389.1 60.6 389.5 55.7 387.6C48.1 384.6 44.5 377.4 44.5 369.5C44.5 367.8 44.7 366.1 45 364.4C51.9 327.1 64.2 296.2 74.3 274.4C78.7 264.8 89.5 258.8 99 263.6C101.9 265 103.9 267.3 105.4 269.9C107.2 273.1 107.9 276.9 107.9 280.8Z" fill="#C7DCF9"/>
<path d="M107.902 280.8C107.902 282.4 107.802 284 107.502 285.5C103.402 312.1 79.8016 376.1 79.8016 376.1C78.1016 381.2 74.5016 385 70.1016 387.1L105.302 269.8C107.202 273.1 107.902 276.9 107.902 280.8Z" fill="#E1ECFF"/>
<path d="M139.395 386.9C137.195 392.3 129.995 392.5 129.995 392.5C129.995 392.5 109.795 393.7 92.2953 393.7C74.7953 393.7 57.5953 393.7 50.5953 385.8C49.1953 384.2 48.0953 382.4 47.4953 380.5C44.8953 373.2 48.1953 364.5 58.5953 360.1C66.0953 356.9 74.6953 358 84.0953 358.9C93.4953 359.8 111.595 364 122.095 366.8C132.695 369.5 138.995 372.2 139.895 382.2C140.195 384.1 139.895 385.6 139.395 386.9Z" fill="#C7DCF9"/>
<path d="M139.392 386.9C137.192 392.3 129.992 392.5 129.992 392.5C129.992 392.5 109.792 393.7 92.2922 393.7C74.7922 393.7 57.5922 393.7 50.5922 385.8C49.1922 384.2 48.0922 382.4 47.4922 380.5C55.2922 382.9 65.7922 385.7 74.1922 386.4C97.8922 388.4 129.292 387.4 139.392 386.9Z" fill="#E1ECFF"/>
<path d="M160.499 370.799C160.499 372.399 160.299 374.099 159.899 375.899C157.799 384.499 146.699 391.099 129.799 391.999C122.299 392.399 117.199 392.399 113.799 391.599C109.399 390.499 107.699 387.899 107.299 382.499C106.799 375.599 111.999 369.299 115.899 366.599C127.599 358.699 138.499 358.099 147.999 358.999C156.499 359.899 160.399 364.599 160.499 370.799Z" fill="#FEA691"/>
<path d="M160.496 370.799C160.496 372.399 160.296 374.099 159.896 375.899C157.796 384.499 146.696 391.099 129.796 391.999C122.296 392.399 117.196 392.399 113.796 391.599C113.396 390.599 113.096 389.399 112.996 387.899C112.496 381.999 117.396 376.499 121.196 374.199C132.296 367.399 142.696 366.799 151.696 367.699C155.696 367.999 158.596 369.099 160.496 370.799Z" fill="#FC8172"/>
<path d="M173.602 388.2C173.602 389.3 173.402 390.3 173.102 391.4H118.102C117.802 390.4 117.602 389.3 117.602 388.2C117.602 378.6 130.102 370.8 145.602 370.8C161.102 370.8 173.602 378.6 173.602 388.2Z" fill="#C7DCF9"/>
<path opacity="0.55" d="M172.405 389.699C172.405 390.299 172.305 390.799 172.005 391.399H121.705C121.405 390.799 121.305 390.299 121.305 389.699C121.305 384.599 132.705 380.399 146.805 380.399C161.005 380.399 172.405 384.599 172.405 389.699Z" fill="#C7DCF9"/>
<path d="M161.493 356.1C165.093 356.5 167.593 358.8 168.993 363.6C170.393 368.4 170.693 375.5 169.193 378C167.693 380.5 164.893 381.6 161.793 379.1C158.693 376.6 156.993 369.6 155.993 366.1C154.793 361.5 153.393 355.3 161.493 356.1Z" fill="#FEA691"/>
<path d="M148.094 353.8C151.994 354.2 153.594 357.5 155.094 362.5C156.594 367.5 156.894 375.1 155.294 377.8C153.694 380.4 150.694 381.6 147.394 379C144.094 376.4 142.194 368.9 141.194 365.2C139.894 360.3 139.294 353 148.094 353.8Z" fill="#FEA691"/>
<path d="M151.996 380.3C150.596 380.6 148.996 380.3 147.396 378.9C144.096 376.3 142.296 368.8 141.196 365.1C140.096 361.1 139.496 355.4 144.196 354C143.296 356.7 143.796 360.4 144.496 363.2C145.496 367.5 147.396 376.2 150.696 379.2C151.196 379.7 151.596 380.1 151.996 380.3Z" fill="#FF8D76"/>
<path d="M133.5 356.1C137.4 356.5 140 359 141.5 364C143 369 143.3 376.6 141.7 379.3C140.1 381.9 137.1 383.1 133.8 380.5C130.5 377.9 128.6 370.4 127.6 366.7C126.3 361.8 124.8 355.2 133.5 356.1Z" fill="#FEA691"/>
<path d="M137.394 381.899C136.294 381.899 135.094 381.399 133.894 380.399C130.594 377.799 128.794 370.299 127.694 366.599C126.694 362.799 125.494 357.999 129.194 356.399C128.894 358.899 129.594 362.099 130.294 364.699C131.494 369.199 133.594 378.399 137.294 381.699C137.294 381.899 137.294 381.899 137.394 381.899Z" fill="#FF8D76"/>
<path d="M120.393 358.9C123.793 357.9 126.393 361.6 127.693 366.2C128.993 370.8 129.393 377.8 127.893 380.2C126.493 382.6 123.693 383.7 120.693 381.3C117.693 378.9 116.893 374.3 115.993 370.9C114.793 366.5 113.793 360.9 120.393 358.9Z" fill="#FEA691"/>
<path d="M124.096 382.699C122.996 382.699 121.896 382.299 120.696 381.299C117.696 378.899 116.896 374.299 115.996 370.899C114.896 367.099 114.096 362.399 118.096 359.899C117.796 362.599 118.296 365.499 118.796 368.099C119.696 372.699 120.396 378.999 123.796 382.399C123.896 382.499 123.996 382.599 124.096 382.699Z" fill="#FF8D76"/>
<path d="M165.699 380.4C164.499 380.5 163.199 380.1 161.899 379C158.799 376.5 157.099 369.5 156.099 366C155.099 362.3 153.899 357.5 157.899 356.3C157.899 358.5 158.399 361 158.899 363.2C159.899 367.7 161.799 376.7 164.999 379.9C165.299 380.1 165.499 380.3 165.699 380.4Z" fill="#FF8D76"/>
<path d="M117.703 134.5C117.703 134.5 127.003 130.7 133.303 143.3C139.603 156 132.803 164.1 132.803 164.1C132.803 164.1 126.603 145.8 117.703 134.5Z" fill="#FF8D76"/>
<path d="M124.097 250.4C115.297 254.5 109.197 248.8 109.197 248.8L103.697 236.9L93.7969 215.5C108.697 212.3 121.697 209.8 121.697 209.8L123.997 219.3L128.297 237C128.097 237.1 132.897 246.4 124.097 250.4Z" fill="#FEA691"/>
<path d="M123.903 219.4C122.603 221.3 121.203 223.3 119.503 225.2C115.203 230.3 109.003 234.2 103.603 236.9L93.7031 215.5C108.603 212.3 121.603 209.8 121.603 209.8L123.903 219.4Z" fill="#FF8D76"/>
<path d="M115.74 217.791C138.015 204.251 142.655 171.201 126.103 143.971C109.551 116.74 78.0761 105.642 55.8011 119.182C33.5262 132.721 28.8865 165.772 45.4381 193.002C61.9898 220.232 93.4649 231.331 115.74 217.791Z" fill="#FEA691"/>
<path d="M126.301 208.3C123.401 212 119.801 215.2 115.701 217.8C93.4005 231.3 62.0005 220.2 45.4005 193C29.0005 166.1 33.4005 133.4 55.1005 119.6C42.5005 135.8 41.9005 161.8 55.4005 183.9C71.9005 211.1 103.401 222.2 125.701 208.7C125.901 208.6 126.101 208.5 126.301 208.3Z" fill="#FF8D76"/>
<path d="M66.1027 209C66.1027 209 49.1027 195.6 44.8027 171.6C40.5027 147.6 45.3027 137.9 65.0027 126.3C84.7027 114.8 99.4027 118.9 99.4027 118.9C99.4027 118.9 85.4027 108.4 62.5027 112.3C39.6027 116.1 16.3027 137.9 21.1027 170.7C26.1027 205.7 46.9027 216 66.1027 209Z" fill="#283575"/>
<path d="M86.6969 146.3C83.9969 148.2 87.7969 158.3 95.9969 165.8C104.197 173.3 112.097 169.4 112.297 162C112.497 154.4 95.9969 139.7 86.6969 146.3Z" fill="#F76F59"/>
<path d="M46.3991 190.9C46.3991 190.9 30.399 206.6 44.799 220.3C58.599 233.4 75.9991 215.8 75.9991 215.8C75.9991 215.8 51.5991 202.7 46.3991 190.9Z" fill="#FF8D76"/>
<path d="M48.2962 200C48.2962 200 39.2962 208.8 47.3962 216.6C55.1962 224 64.9963 214.1 64.9963 214.1C64.9963 214.1 51.1962 206.7 48.2962 200Z" fill="#F76F59"/>
<path d="M97.3998 117.6C97.3998 117.6 99.0998 87.3996 81.8998 75.0996C62.4998 61.2996 51.5998 81.1996 57.9998 97.4996C60.7998 104.8 63.7998 109.2 66.1998 111.8C68.3998 114.2 71.3998 115.6 74.5998 115.8L97.3998 117.6Z" fill="#283575"/>
<path d="M31.5979 92.0993C16.2979 104.299 29.4979 121.799 35.7979 126.499C38.4979 128.499 41.3979 130.099 43.8979 131.299C47.2979 132.899 51.298 132.699 54.498 130.699L76.0979 116.999C76.0979 117.099 51.8979 75.9993 31.5979 92.0993Z" fill="#283575"/>
<path d="M67.8993 71.7995C63.0993 72.3995 68.3993 81.5995 75.3993 82.7995C82.3993 83.9995 80.1993 70.2995 67.8993 71.7995Z" fill="#3C4E8E"/>
<path d="M37.6015 92.2999C34.8015 95.4999 42.1015 99.5999 48.0015 97.5999C54.0015 95.6999 43.8015 85.2999 37.6015 92.2999Z" fill="#3C4E8E"/>
<path d="M126.599 184.5C126.099 185.5 125.399 186.4 124.399 187.2C120.699 190.1 117.899 194.3 115.899 198.7C114.099 202.6 109.499 207.2 105.199 203.9C104.699 203.5 104.199 203.1 103.799 202.5C99.2991 196.8 100.999 182.1 107.999 175.6C113.399 170.6 120.099 171.9 123.499 174.7C126.799 177.2 128.199 181.2 126.599 184.5Z" fill="#F76F59"/>
<path d="M126.595 184.499C126.095 185.499 125.395 186.399 124.395 187.199C120.695 190.099 117.895 194.299 115.895 198.699C114.095 202.599 109.495 207.199 105.195 203.899C105.195 197.599 107.495 190.199 111.895 186.199C116.995 181.599 122.995 182.199 126.595 184.499Z" fill="#FF6EA9"/>
<path d="M64.702 167.2C61.502 167.2 59.002 166.2 58.802 166.1C57.502 165.6 56.902 164.1 57.402 162.8C57.902 161.5 59.402 160.9 60.702 161.4C60.802 161.4 66.302 163.6 69.302 160.3C73.202 156.2 69.102 150.9 69.002 150.7C68.102 149.6 68.302 148 69.402 147.1C70.502 146.2 72.102 146.4 73.002 147.5C75.402 150.6 78.502 157.9 73.002 163.7C70.502 166.4 67.402 167.2 64.702 167.2Z" fill="#1C3177"/>
<path d="M101.896 142.1C96.7956 142.1 92.4956 138.3 92.1956 138.1C91.0956 137.2 91.0956 135.5 91.9956 134.5C92.8956 133.5 94.4956 133.4 95.5956 134.3C95.5956 134.3 100.196 138.2 103.596 136.7C105.096 136 103.996 132.9 103.896 132.8C103.396 131.5 103.996 130 105.396 129.5C106.696 129 108.196 129.6 108.696 130.9C110.196 134.6 109.796 139.5 105.696 141.3C104.396 141.9 103.096 142.1 101.896 142.1Z" fill="#1C3177"/>
<path d="M51.3022 161.2C51.2022 161.2 51.1022 161.2 51.0022 161.2C49.6022 161 48.6022 159.8 48.7022 158.4C48.7022 158.1 49.4022 152.1 53.6022 146C57.7022 139.9 61.9022 137.8 62.1022 137.7C63.4022 137.1 64.9022 137.6 65.5022 138.9C66.1022 140.2 65.6022 141.7 64.3022 142.3C64.3022 142.3 61.1022 144 57.8022 148.8C54.4022 153.8 53.8022 158.8 53.8022 158.9C53.7022 160.2 52.6022 161.2 51.3022 161.2Z" fill="#1C3177"/>
<path d="M87.8949 131.6C87.1949 131.6 86.3949 131.3 85.8949 130.7C84.9949 129.6 85.1949 128 86.2949 127.1C86.5949 126.9 88.8949 125 92.9949 123.8C97.0949 122.6 100.495 122.7 100.595 122.7C101.995 122.7 103.095 123.9 103.095 125.3C103.095 126.7 101.795 127.8 100.495 127.8C100.495 127.8 97.7949 127.7 94.4949 128.7C91.2949 129.7 89.4949 131.1 89.4949 131.1C88.9949 131.4 88.4949 131.6 87.8949 131.6Z" fill="#1C3177"/>
<path d="M414.8 405.8H7.2C3.2 405.8 0 402.6 0 398.6C0 394.6 3.2 391.4 7.2 391.4H414.8C418.8 391.4 422 394.6 422 398.6C422 402.5 418.8 405.8 414.8 405.8Z" fill="#99ADF9"/>
<path d="M414.097 405.8H65.9969C61.9969 405.8 58.7969 402.6 58.7969 398.6C58.7969 394.6 61.9969 391.4 65.9969 391.4H414.097C418.097 391.4 421.297 394.6 421.297 398.6C421.397 402.5 418.097 405.8 414.097 405.8Z" fill="#789FEF"/>
<path d="M366.496 344.2H180.496C177.196 344.2 174.596 341.2 175.196 337.9L194.996 219.2C195.396 216.6 197.696 214.7 200.296 214.7H386.296C389.596 214.7 392.196 217.7 391.596 221L371.896 339.7C371.396 342.3 369.196 344.2 366.496 344.2Z" fill="#E1ECFF"/>
<path d="M370.494 344.2H186.894C183.594 344.2 180.994 341.2 181.594 337.9L201.394 219.2C201.794 216.6 204.094 214.7 206.694 214.7H390.294C393.594 214.7 396.194 217.7 395.594 221L375.794 339.7C375.394 342.3 373.094 344.2 370.494 344.2Z" fill="#C7DCF9"/>
<path d="M351.095 331.501H210.895C208.295 331.501 206.395 329.201 206.795 326.701L221.895 236.101C222.195 234.101 223.995 232.601 225.995 232.601H366.095C368.695 232.601 370.595 234.901 370.195 237.401L355.095 328.001C354.795 330.001 353.095 331.501 351.095 331.501Z" fill="#B7D4F7"/>
<path d="M291.195 384H265.695C263.295 384 261.495 382 261.695 379.6L268.395 313.1C268.595 311.1 270.295 309.5 272.395 309.5H297.895C300.295 309.5 302.095 311.5 301.895 313.9L295.195 380.4C294.995 382.5 293.295 384 291.195 384Z" fill="#E1ECFF"/>
<path d="M292.998 384H269.598C268.098 384 266.898 382.7 266.998 381.2L273.998 311.8C274.098 310.5 275.198 309.5 276.598 309.5H299.998C301.498 309.5 302.698 310.8 302.598 312.3L295.598 381.7C295.398 383 294.298 384 292.998 384Z" fill="#C7DCF9"/>
<path d="M333.598 391.3H227.398C225.198 391.3 223.398 389.5 223.398 387.3V378.5C223.398 376.3 225.198 374.5 227.398 374.5H333.598C335.798 374.5 337.598 376.3 337.598 378.5V387.3C337.598 389.5 335.798 391.3 333.598 391.3Z" fill="#E1ECFF"/>
<path d="M335.795 391.3H235.895C233.595 391.3 231.695 389.4 231.695 387.1V378.7C231.695 376.4 233.595 374.5 235.895 374.5H335.795C338.095 374.5 339.995 376.4 339.995 378.7V387.1C339.895 389.4 338.095 391.3 335.795 391.3Z" fill="#C7DCF9"/>
<path d="M98.5949 40.7L100.395 44.4C100.595 44.9 101.095 45.2 101.595 45.2L105.595 45.8C106.895 46 107.395 47.5 106.395 48.4L103.495 51.2C103.095 51.6 102.995 52.1 103.095 52.6L103.795 56.6C103.995 57.8 102.695 58.8 101.595 58.2L97.9949 56.3C97.5949 56.1 96.9949 56.1 96.5949 56.3L92.9949 58.2C91.8949 58.8 90.5949 57.8 90.7949 56.6L91.4949 52.6C91.5949 52.1 91.3949 51.6 91.0949 51.2L88.1949 48.4C87.2949 47.5 87.7949 46 88.9949 45.8L92.9949 45.2C93.4949 45.1 93.8949 44.8 94.1949 44.4L95.9949 40.7C96.3949 39.6 97.9949 39.6 98.5949 40.7Z" fill="#FEC272"/>
<path d="M293.195 69.7C293.195 83.5 289.195 96.3 282.295 107.2C279.795 113 267.195 137.5 224.395 157.1C179.495 177.7 139.695 163 139.695 163C139.695 163 164.195 146.9 159.595 120C155.995 98.8 153.495 83.6 153.695 70.8C153.695 70.4 153.695 70.1 153.695 69.7C153.695 31.2 184.895 0 223.395 0C261.895 0 293.195 31.2 293.195 69.7Z" fill="#F0F6FF"/>
<path d="M146.997 116C143.297 106.5 139.597 106.9 137.097 108.7C134.797 110.4 134.297 116.3 137.097 121.9C139.897 127.5 142.697 127.1 145.497 125.6C148.297 124.1 148.697 120.4 146.997 116Z" fill="#C7DCF9"/>
<path d="M270.495 137C255.095 145.2 256.495 151.5 260.095 155.3C263.495 158.9 273.595 158.5 282.495 152.7C291.395 146.9 290.295 142.2 287.195 137.7C284.095 133.2 277.595 133.1 270.495 137Z" fill="#C7DCF9"/>
<path d="M273.498 91.3C273.498 95.1 271.698 98.9 268.298 101.2C260.898 106.4 249.098 114.1 236.098 120.9C227.798 125.3 220.598 128.7 214.798 131.2C209.998 133.3 204.698 132.9 200.398 130.5C197.498 128.9 195.098 126.4 193.598 123.2C192.598 121 191.998 118.6 191.998 116.2C191.998 114.2 192.398 112.2 193.098 110.2L193.498 109.1L210.698 65.5L187.698 77.9C181.298 81.3 173.398 79.1 169.698 72.8C169.598 72.6 169.498 72.4 169.398 72.2C168.398 70.2 167.898 68.1 167.898 66C167.898 61.6 170.098 57.2 174.098 54.7C181.398 50 191.998 43.6 204.598 36.9C228.798 24 240.798 25.6 244.198 32.1C247.598 38.7 228.098 93.9 228.098 93.9C228.098 93.9 254.198 80.8 256.998 79.8C262.998 77.5 269.698 80.3 272.398 86.1C272.998 87.4 273.298 88.8 273.398 90.2C273.498 90.7 273.498 91 273.498 91.3Z" fill="#99ADF9"/>
<path d="M217.997 58.2996C212.197 72.5996 198.497 105.5 193.697 109.2L210.897 65.5996L187.897 77.9996C181.497 81.4996 173.397 79.1996 169.797 72.7996C169.997 72.5996 169.797 72.7996 169.997 72.5996C172.297 73.6996 176.397 74.6996 182.497 71.6996C193.897 66.2996 206.897 59.1996 214.397 55.0996C216.497 53.9996 218.897 56.0996 217.997 58.2996Z" fill="#7D9AF9"/>
<path d="M273.498 91.3C273.498 95.1 271.698 98.9 268.298 101.2C260.898 106.4 249.098 114.1 236.098 120.9C227.798 125.3 220.598 128.7 214.798 131.2C209.998 133.3 204.698 132.9 200.398 130.5C201.298 130.3 202.198 130.1 202.998 129.8C207.498 128.3 227.798 117.6 247.698 106.9C260.698 99.9 269.498 94.3 273.398 90.5C273.498 90.7 273.498 91 273.498 91.3Z" fill="#7D9AF9"/>
<path opacity="0.49" d="M223.099 31.1001C214.099 34.1001 209.499 39.7001 220.299 39.1001C231.099 38.5001 236.799 33.0001 234.899 31.2001C232.999 29.5001 227.199 29.7001 223.099 31.1001Z" fill="white"/>
<path opacity="0.49" d="M257.595 82.1004C251.895 84.0004 248.895 87.6004 255.795 87.2004C262.695 86.8004 266.295 83.3004 265.095 82.2004C263.795 81.1004 260.195 81.2004 257.595 82.1004Z" fill="white"/>
</svg>
