<svg xmlns="http://www.w3.org/2000/svg" viewBox="0 0 465.4 223.6"><path d="M465.3 1.1h-25.7v177.8c.8 6.1-2.3 12.1-8.3 15.1-.8 0-.8.8-1.5.8h-1.5c-5.3 1.5-10.6-.8-13.6-5.3l-.8-.8v-.8C365.4 110 335.2 60.8 322.3 40.4c-.8-1.5-2.3-2.3-4.5-2.3-2.3.8-3 3-3 5.3v136.2c.8 6.1-3 11.3-7.6 13.6 0 0-.8 0-.8.8h-3.2c-5.3.8-10.6-2.3-13.6-6.8C241.4 110 211.1 60.8 199 40.4c-.8-1.5-2.3-2.3-4.5-2.3-2.3.8-3 3-3 5.3v136.2c0 3-1.5 6.1-3 8.3-.8 0-.8.8-.8.8v.8l-.8.8-.8.8c-2.3 2.3-5.3 3-8.3 3h-77.2c-5.3-.8-9.8-1.5-14.4-2.3-15.1-3.9-28.7-11.4-39.3-22.8l-.8-.8c-7.6-9.1-13.6-18.9-17.4-30.3-.8-3.8-1.5-6.8-1.5-10.6 0-.8 0-.8-.8-1.5-.8-4.5-.8-9.8-.8-14.4v-.8c0-15.9 3.8-31.8 12.1-46.2C40 60.6 43 56.8 46 53.8c0 0 0-.8.8-.8 16-17.1 38.7-27 62.2-26.2h39.3V1.1h-34C81.8-.4 50.7 11.7 28 35.1 9.1 55.5-.8 82.8 0 110.8c-.8 28 9.8 55.2 29.5 75.7 22.7 23.5 54.5 36.3 87 34.8h59.8c11.3.8 22.7-3.8 31-11.3 8.3-9.1 12.1-20.4 11.3-32.5v-56l46.9 77.9c5.3 8.3 12.1 15.1 21.2 19.7 7.6 3.8 16.6 5.3 25 3.8 8.3-1.5 15.9-6.1 21.2-12.1 6.1-7.6 9.1-17.4 9.1-27.2v-62l46.9 77.9c4.5 8.3 12.1 15.9 21.2 19.7 7.6 3.8 16.6 5.3 25 3.8 8.3-1.5 15.9-6.1 21.2-12.1 6.1-7.6 9.1-17.4 9.1-27.2-.1-.3-.1-182.6-.1-182.6zm-43.1 180.8c.8 1.5 2.3 2.3 3.8 2.3 2.3-.8 3-3 2.3-5.3V1.1h-25.8v103.7l-43.9-76.4c-5.3-9.8-13.6-18.2-24.2-23.5-8.3-3.8-17.4-5.3-25.7-3s-15.9 6.8-20.4 13.6c-6.1 7.6-9.1 16.6-8.3 25.7v63.6l-44.6-77.2c-5.3-9.8-13.6-18.2-24.2-23.5-7.6-3.8-17.4-5.3-25.7-3s-16 6.8-21.3 13.6c-3 4.5-5.3 9.1-6.8 14.4-.8 3.8-1.5 7.6-1.5 11.3v109.7c0 2.3-.8 3.8-2.3 5.3s-3 2.3-5.3 2.3h-34c-15.1.8-29.5-4.5-40.9-15.1-8.3-8.4-12.9-20.5-12.9-32.6-.8-25.7 20.4-46.9 46.2-47.7h40.8v-25h-38.6c-20.4-.7-40.8 7.6-54.4 22.8-3 3.8-5.3 7.6-8.3 11.3-6.8 12.1-10.6 25.7-10.6 39.3 0 4.5.8 9.8 1.5 14.4.8 3 1.5 6.8 2.3 9.8 3 9.8 8.3 18.2 15.1 25.7 9.1 9.8 21.2 16.6 34 20.4 4.5 1.5 9.8 2.3 14.4 2.3h73.4c1.5 0 3-.8 4.5-1.5 1.5-.8 1.5-3 1.5-4.5V44.2c-.8-6.1 3-12.1 9.1-14.4l.8-.8h2.3c5.3-1.5 10.6.8 14.4 5.3 0 .8.8.8.8 1.5 12.1 20.4 42.4 69.6 90.8 147.5.8 1.5 2.3 2.3 3.8 2.3 1.5-.8 3-3 2.3-5.3V44.2c-.8-6.1 3-12.1 9.1-14.4l.8-.8h2.3c5.3-1.5 10.6.8 14.4 5.3 0 .8.8.8.8 1.5 9.5 19 39.8 68.2 88.2 146.1z" /></svg>