<svg version="1.1" id="Layer_1" xmlns="http://www.w3.org/2000/svg" x="0" y="0" viewBox="0 0 1331.7 317.8" xml:space="preserve"><path d="M272 40.1c1.4.5 2.8 1 4.2 1.3 11.5 3.2 20.6 13.6 21.6 24.9 1.3 13.7-4.9 25.3-16.4 31-11 5.4-25 3.9-33.4-5.1-12.7-13.7-32.4-13.3-45-.1-11.2 11.8-29.6 10.9-41.8-.9-8-7.8-17.2-11.2-28.2-8.5-17.9 4.4-33.5 28.4-16.9 49.1 4.8 6 9.8 11.8 10.7 19.9 1.1 10.2-2.1 18.8-9.2 26.4-15.8 16.9-8 44.1 14.3 50.4 11.5 3.3 21.3-.4 29.8-8.3 6.3-5.8 13.6-8.7 22.3-8.4 14.9.6 26.2 11 28.6 26.4 2.1 13.2-6.7 27.1-20 31.7-1.9.6-3.7 1.4-5.5 2h-8c-8.2-2.1-14.8-6.7-21.2-12.3-10.1-9-25.5-9-35.7-.1-6.4 5.6-12.9 10.3-21.1 12.4h-8c-1.2-.4-2.4-.9-3.6-1.3-9.7-3-16.6-9.1-20.2-18.8-.7-2-1.4-4-2.2-5.9v-8c2-8.5 6.9-15.1 12.5-21.6 8.7-10 8.6-25.3-.1-35.3-5.6-6.4-10.3-12.9-12.4-21.1v-8c2.2-8.2 6.8-14.8 12.4-21.1 8.9-10.1 8.8-25.4-.2-35.7-5.7-6.2-10.3-12.7-12.3-21v-8c.4-1.2.9-2.4 1.3-3.6 3-9.7 9-16.7 18.7-20.3 2-.7 4-1.4 5.9-2.1h8c8 2.1 14.5 6.5 20.8 11.9 10.1 8.7 24.7 8.7 35.4.4 6.7-5.2 13.3-10.3 21.8-12.3h8c8 2.3 14.4 6.9 20.7 12.2 10 8.4 24.5 8.4 35.1.1 6.6-5.1 13-10.2 21.2-12.3h8.1zm-14 202.3c0-6 4.5-10.3 10.4-10.2 5.5.1 10.1 4.7 10.2 10.1.1 5.6-4.7 10.5-10.4 10.5-5.8.1-10.2-4.4-10.2-10.4z"/><path d="M258 158.3c.1-6 4.4-10.2 10.5-10.1 5.6.1 10.1 4.7 10.1 10.2 0 5.6-4.9 10.5-10.5 10.5-5.7-.1-10.1-4.8-10.1-10.6zm-65.1.9c0 5.9-4.5 10.4-10.3 10.3-5.7-.1-10.5-5-10.3-10.6.2-5.5 4.7-9.9 10.3-10 6-.1 10.4 4.3 10.3 10.3zM408.9 213.9c5.5 0 10.7-1.1 15.6-3.2 4.9-2.2 10.1-5.1 15.6-8.9l15.5 15.8c-8.1 6.7-15.8 11.3-23.1 13.8-7.3 2.5-15.2 3.7-23.6 3.7-9.5 0-18.3-1.7-26.4-5-8.1-3.4-15.1-7.9-21.1-13.7-5.9-5.8-10.6-12.6-14-20.4-3.4-7.8-5-16.2-5-25.2 0-9.5 1.7-18.3 5-26.5 3.4-8.2 8-15.3 14-21.3 5.9-6 13-10.7 21.1-14.1s16.9-5 26.4-5c8.3 0 16.2 1.4 23.8 4.1 7.6 2.8 15.2 7.2 23 13.4l-15.5 15.8c-5-3.4-10.1-6.3-15.2-8.7-5.2-2.3-10.5-3.5-16-3.5-6 0-11.8 1.2-17.3 3.6-5.5 2.4-10.3 5.7-14.5 9.9-4.1 4.2-7.4 9.1-9.8 14.6s-3.6 11.4-3.6 17.6c0 5.7 1.2 11.1 3.6 16.3s5.7 9.7 9.8 13.7c4.1 4 9 7.2 14.5 9.6 5.4 2.4 11.2 3.6 17.2 3.6zm115 21.2c-8.8 0-17.1-1.6-25.1-4.9-7.9-3.3-14.9-7.8-20.8-13.7s-10.7-12.8-14.2-20.8-5.3-16.7-5.3-26c0-8.8 1.8-17.2 5.3-25.2s8.3-15 14.2-21.1c5.9-6 12.9-10.8 20.8-14.3s16.3-5.3 25.1-5.3 17.2 1.8 25.2 5.3 15 8.3 21.1 14.3c6 6 10.8 13 14.3 21.1 3.5 8 5.3 16.4 5.3 25.2 0 9.3-1.8 18-5.3 26s-8.3 14.9-14.3 20.8-13.1 10.4-21.1 13.7c-8 3.2-16.4 4.9-25.2 4.9zm0-109.4c-6.4 0-12.2 1.2-17.4 3.6-5.3 2.4-9.8 5.6-13.7 9.7-3.9 4.1-6.9 8.7-9 14-2.2 5.3-3.2 10.8-3.2 16.7 0 6.2 1.1 12 3.2 17.3 2.2 5.3 5.2 9.9 9 13.8 3.9 3.9 8.4 6.9 13.7 9 5.3 2.2 11.1 3.2 17.4 3.2 6.4 0 12.2-1.1 17.6-3.2 5.3-2.2 9.9-5.2 13.8-9 3.9-3.9 6.9-8.5 9-13.8 2.2-5.3 3.2-11.1 3.2-17.3 0-5.9-1.1-11.4-3.2-16.7-2.2-5.3-5.1-9.9-8.9-14-3.8-4-8.4-7.3-13.8-9.7s-11.3-3.6-17.7-3.6zM627 65v22h-22.7V65H627zm-22.7 39.5H627v129.2h-22.7V104.5zM671.5 234h-22.7V104.8h22.7l.3 15.5c1-1.6 2.5-3.4 4.5-5.4 2-2.1 4.3-4 7-5.8s5.8-3.4 9.4-4.7c3.6-1.3 7.7-1.9 12.1-1.9 9.3 0 17.3 1.8 23.9 5.3 6.6 3.5 12.1 8.3 16.3 14.2 4.2 5.9 7.3 12.8 9.3 20.7 2 7.8 3 16 3 24.4V234h-23v-67.4c0-4.7-.4-9.5-1.2-14.5s-2.2-9.5-4.4-13.6c-2.2-4-5.1-7.4-8.9-10.1-3.8-2.7-8.8-4-15-4-5.5 0-10.3 1.1-14.5 3.4-4.1 2.2-7.6 5.3-10.5 9-2.8 3.8-5 8.2-6.3 13.3-1.4 5.1-2.1 10.5-2.1 16.2V234h.1zm160.7-128.9c6.4 0 12.2 1 17.4 3 5.3 2 9.8 4.2 13.6 6.6 4.5 2.8 8.4 5.9 11.9 9.3V41.5h23v192.8h-23v-19.6c-1.2 1.7-2.9 3.8-5.2 6.2-2.2 2.4-5.1 4.7-8.7 7-3.5 2.2-7.7 4.2-12.5 5.8s-10.3 2.5-16.5 2.5c-9.3 0-17.7-1.8-25.2-5.4-7.5-3.6-13.9-8.5-19.3-14.6-5.3-6.1-9.4-13.2-12.3-21.2-2.8-8-4.3-16.4-4.3-25.2 0-8.4 1.4-16.6 4.3-24.4 2.8-7.8 6.9-14.7 12.3-20.7 5.3-5.9 11.8-10.7 19.3-14.2 7.5-3.7 15.9-5.4 25.2-5.4zm0 109.5c5.3 0 10.6-.9 15.6-2.8 5.1-1.9 9.6-4.7 13.7-8.4 4-3.7 7.3-8.4 9.8-14.1 2.5-5.7 3.7-12.3 3.7-19.9 0-7.1-1.2-13.3-3.6-18.6-2.4-5.3-5.6-9.8-9.6-13.3s-8.5-6.2-13.7-8c-5.2-1.8-10.5-2.7-16-2.7-6.2 0-11.7 1.3-16.4 4s-8.7 6.1-11.8 10.2c-3.1 4.1-5.5 8.7-7.1 13.7s-2.5 9.8-2.5 14.5c0 5 .7 10.2 2.2 15.5s3.7 10.2 6.8 14.6c3.1 4.4 7 8.1 11.8 11 4.9 2.9 10.6 4.3 17.1 4.3zm197.4-5.6c-6.9 8.3-14.7 14.7-23.5 19.4s-18.6 7-29.5 7c-10.2 0-19.1-1.6-26.7-4.9-7.7-3.3-14.1-7.8-19.3-13.6s-9-12.6-11.6-20.5-3.9-16.5-3.9-25.8c0-8.8 1.3-17.1 3.9-25.1 2.6-7.9 6.5-14.9 11.6-20.9 5.2-6 11.6-10.8 19.3-14.3s16.6-5.3 26.7-5.3c9.3 0 17.7 1.8 25.3 5.4s14 8.6 19.3 15c5.3 6.4 9.3 14 12.3 22.7 2.9 8.8 4.4 18.3 4.4 28.4H937.7c.2 5.7 1.1 10.9 2.8 15.6 1.7 4.7 4.2 8.8 7.5 12.3 3.3 3.4 7.3 6.2 12.1 8.1 4.8 2 10.3 3 16.5 3 6 0 11.5-1.1 16.3-3.2 4.8-2.2 8.9-4.6 12.1-7.4 3.8-3.1 7.1-6.6 10.1-10.6l14.5 14.7zm-53.2-83.8c-5.5 0-10.5.9-14.9 2.7s-8.2 4.2-11.5 7.1c-3.3 2.9-5.9 6.3-7.9 10.1s-3.2 7.7-3.7 11.6h74.7c-1-4.3-2.7-8.4-4.9-12.3-2.2-3.9-5-7.2-8.1-10.1-3.2-2.8-6.8-5.1-10.7-6.7-4-1.6-8.3-2.4-13-2.4zm93.6 13.2c0 2.1.7 4 2.2 5.9s3.4 3.7 5.8 5.3 5.3 3.3 8.5 4.9c3.3 1.6 6.6 3.2 10.1 4.8 4.7 2.1 9.4 4.4 14.3 6.8 4.9 2.5 9.3 5.3 13.3 8.4 4 3.1 7.2 6.7 9.7 10.9 2.5 4.1 3.7 8.9 3.7 14.2 0 10.5-4 19.1-12.1 25.8s-19.3 10.1-33.6 10.1c-7.2 0-13.8-.8-19.8-2.3-5.9-1.6-11.1-3.3-15.4-5.3s-7.6-3.8-9.8-5.4c-2.2-1.6-3.4-2.5-3.4-2.7l9-17.3c2.1 1 4.7 2.2 7.8 3.6 3.1 1.4 6.4 2.6 9.9 3.7s7.1 2.1 10.9 3c3.7.9 7.3 1.3 10.7 1.3 6 0 10.9-1.2 14.7-3.6 3.8-2.4 5.7-6 5.7-10.9 0-4.1-2.3-7.5-7-10.2s-10.3-5.5-16.8-8.4l-3.4-1.8v.3c-4.5-2.1-8.9-4.2-13.3-6.5-4.4-2.2-8.4-5-12-8.1-3.6-3.2-6.5-7-8.8-11.4-2.2-4.4-3.4-9.8-3.4-16.2 0-10.2 3.7-18.4 11-24.7 7.3-6.3 17.6-9.4 30.9-9.4 5.7 0 10.9.6 15.5 1.7 4.7 1.1 8.7 2.4 12.1 3.7 4 1.6 7.6 3.3 10.9 5.2l-9.6 18.1c-3.1-1.5-7.3-3.2-12.7-5-5.3-1.8-10.8-2.7-16.3-2.7-6 0-10.8 1.4-14.3 4.1-3.3 2.8-5 6.1-5 10.1zm75.9-96.9h22.7V234h-22.7V41.5zm123.8 192.8h-33.1l-70.8-71.1 57.9-57.9h32.8l-57.9 57.9 71.1 71.1z"/></svg>