<svg width="23" height="23" viewBox="0 0 23 23" xmlns="http://www.w3.org/2000/svg">
<path fill-rule="evenodd" clip-rule="evenodd" d="M8.98283 0.354218C6.08551 1.02567 3.55028 2.77013 1.88783 5.23622C1.06683 6.46022 0.573827 7.62222 0.238827 9.12722C0.006827 10.1312 -0.069173 11.8982 0.068827 12.9852C0.416827 15.8252 1.82583 18.3482 4.10483 20.2602C5.29483 21.2572 6.63583 21.9932 6.63583 21.6492C6.63583 21.6012 6.49283 21.4292 6.32183 21.2572C5.15183 20.1222 4.53583 18.1352 4.78183 16.2862C5.11083 13.8242 6.11683 12.1802 8.07983 10.9022C8.44983 10.6612 8.78483 10.4622 8.82583 10.4622C8.96883 10.4622 8.88083 10.1722 8.52483 9.48522C7.84083 8.18522 7.59483 7.29222 7.59483 6.10922C7.59483 4.29322 8.36083 2.35522 9.53683 1.17922C9.87883 0.842218 9.92083 0.773218 9.92083 0.505218C9.92083 0.237218 9.90683 0.216218 9.73583 0.223218C9.62583 0.223218 9.29083 0.285218 8.98283 0.353218" />
<path fill-rule="evenodd" clip-rule="evenodd" d="M15.9413 1.07633C15.9413 1.13133 16.0433 1.32333 16.1733 1.50233C16.7751 2.34327 17.1156 3.34292 17.1523 4.37633C17.2133 5.67633 16.8643 6.80333 16.2213 7.37433C15.7493 7.79433 15.3383 7.80733 14.7503 7.43633C14.3333 7.16833 14.2853 6.97633 14.5653 6.61833C15.0373 6.01933 15.3253 5.08433 15.3253 4.12233C15.3253 3.12533 15.1333 2.56833 14.6133 2.08633C14.0523 1.57133 13.4843 1.41933 12.7253 1.59833C11.9523 1.77033 11.2263 2.60233 10.8363 3.76433C10.6383 4.36233 10.4673 5.39433 10.4673 5.99233C10.4743 7.12033 10.8093 8.44733 11.2953 9.25833C11.5683 9.71933 12.2453 10.4753 12.6493 10.7713C12.8003 10.8813 12.9303 10.9983 12.9303 11.0183C12.9303 11.0463 12.7863 11.1153 12.6083 11.1833C11.2953 11.6723 9.97434 13.1363 9.38634 14.7533C9.01034 15.7833 8.87334 16.6233 8.92134 17.5853C8.97534 18.7683 9.18834 19.3253 9.85834 20.0543C10.3853 20.6313 11.3843 20.8933 12.5813 20.7763C13.9633 20.6313 15.0243 20.1363 15.9343 19.1943C16.3313 18.7743 16.4133 18.7273 16.4883 18.8163C16.5563 18.8993 16.5433 18.9673 16.3983 19.2153C15.4963 20.7553 13.8133 22.0753 12.2533 22.4603C11.9103 22.5433 11.7673 22.6113 11.7673 22.6873C11.7673 22.9353 13.8953 22.5913 15.1813 22.1373C18.4713 20.9823 21.1813 18.2383 22.2763 14.9653C22.7283 13.6113 22.8033 13.0753 22.8103 11.3903C22.8173 10.0763 22.7963 9.77433 22.6603 9.10733C21.9963 5.79333 19.8683 2.96733 16.7553 1.26133C16.2073 0.959326 15.9413 0.897326 15.9413 1.07633"/>
</svg>
