<svg xmlns="http://www.w3.org/2000/svg" viewBox="0 0 567.3 130.6"><path d="M72.9 29.8v71c0 16.5 13.3 29.8 30.4 29.8 16.5 0 29.8-13.3 29.8-29.8v-71c0-16.5-13.3-29.8-29.8-29.8-17.1 0-30.4 13.3-30.4 29.8m21.5 71v-71c0-5.1 3.8-8.2 8.9-8.2 4.4 0 8.2 3.2 8.2 8.2v71c0 4.4-3.8 8.2-8.2 8.2-5.1 0-8.9-3.8-8.9-8.2M306.8 1.3h-60.9v21.5h19.7v105.9h21.5V22.8h19.7zm63.4 0v99.5c0 4.4-3.8 8.2-8.2 8.2s-8.2-3.8-8.2-8.2V1.3h-22.2v99.5c0 16.5 13.9 29.8 30.4 29.8s30.4-13.3 30.4-29.8V1.3h-22.2zm197.1 21.5V1.3h-53.2v127.4h53.2v-21.6h-31.7V74.2h20.3V52.6h-20.3V22.8zM225.6 128.7h-22.8L187 68.5s13.9-2.5 13.9-17.1V31.7c0-5.1-3.8-8.9-8.9-8.9h-8.2v105.8h-21.6V1.3H192c16.5 0 29.8 12.7 30.4 29.2v20.3c0 12.7-4.4 21.5-12 27.9l15.2 50zM465.9 1.3V71L443.7 1.3h-22.2v127.4h22.2V66.6l20.3 62.1h24.1V1.3zM22.8 3.2H0v127.4h22.8V76.1h20.9V54.5H22.8V24.7h33V3.2z" /></svg>