<svg version="1.1" id="svg3228" xmlns="http://www.w3.org/2000/svg" xmlns:xlink="http://www.w3.org/1999/xlink" x="0" y="0" viewBox="0 0 1024 247" xml:space="preserve"><g transform="matrix(1.25 0 0 -1.25 -735.35 72.156)" id="g2866"><defs><path id="SVGID_1_" d="M115.7-272h1674v512h-1674z"/></defs><clipPath id="SVGID_2_"><use xlink:href="#SVGID_1_" overflow="visible"/></clipPath><g id="g2868" clip-path="url(#SVGID_2_)"><g id="g2874" transform="translate(718.508 33.542)"><path id="path2876" class="st1" d="M475.8-91.9c0-9.9.4-10.2 9.3-10.2H515c1.3 0 2.3-1.1 2.3-2.3v-7.6c0-1.7-.6-2.3-2.3-2.5-3.8-.6-11.5-1.7-25.6-1.7-19.7 0-30.1-.1-30.1 24.2v37.4c0 24.4 10.4 24.2 30.1 24.2 14 0 21.7-1.1 25.6-1.6 1.8-.2 2.3-.8 2.3-2.5V-42c0-1.3-1.1-2.4-2.3-2.4h-30c-9 0-9.3-.3-9.3-10.2v-10.8h37.8c1.3 0 2.3-1.1 2.3-2.4v-8.5c0-1.3-1-2.4-2.3-2.4h-37.8l.1-13.2zm174.9-24.2c-10.5 0-21 1.8-26.7 3.1-1.2.2-2.2 1.1-2.2 2.4v8.5c0 1.3 1.1 2.2 2.2 2.2h.2c4.7-.6 15.8-2.1 26.7-2.1 10.5 0 13.7 3.8 13.7 10.6 0 8.9-21.2 13.8-31.5 18-10.3 4.3-13.9 12.4-13.9 20.7 0 13 10.5 22.5 32.5 22.5 11.3 0 21.6-2.1 25.6-3.1 1.2-.2 2.1-1.1 2.1-2.2v-8.8c0-1.2-.8-2.1-2-2.1h-.2c-7.8.7-15.9 2.1-26.2 2.1-8.8 0-15.3-3.1-15.3-8.4 0-3.9 4.5-7.5 9.7-9.5 5.2-2.1 12.1-4.8 20-7.9 9.9-4 16.4-9.9 16.4-21.2 0-12.1-7.5-24.8-31.1-24.8m-62.9 59.2c0 8.9-6.9 12.6-18.7 12.6-2.5 0-13.2-.2-15.4-.5v-25.6c1.9-.1 13.4-.4 15.4-.4 12.2 0 18.7 2.3 18.7 12.7v1.2zm17.7-58.2H591c-1.3 0-1.8 1.2-2.3 2.4l-17 28.7h-2.6c-3.1 0-12.6.3-15.4.5v-29.1c0-1.3-.9-2.4-2.2-2.4h-11.8c-1.3 0-2.4 1.1-2.4 2.4v77.5c0 2.4 1.4 3.2 3.8 3.6 6.2.9 19.4 1.5 28 1.5 18.2 0 35-6.5 35-26.7V-58c0-12.5-6.3-19.4-16-23.1l18.6-31.6c.2-.4.2-.7.2-1 .1-.8-.4-1.4-1.4-1.4M445-44.9h-23.6v-67.9c0-1.3-1.1-2.4-2.4-2.4h-11.7c-1.3 0-2.4 1.1-2.4 2.4v67.9h-23.6c-1.3 0-2.4.8-2.4 2.1v9.3c0 1.3 1.1 2.3 2.4 2.3H445c1.3 0 2.4-.9 2.4-2.3v-9.3c-.1-1.3-1.1-2.1-2.4-2.1m-113.2-71.2c-19 0-35.4 8.3-35.4 33.5v49.2c0 1.3 1.1 2.3 2.4 2.3h11.7c1.3 0 2.4-.9 2.4-2.3v-49.2c0-13.5 6.2-19.9 19-19.9s19 6.4 19 19.9v49.2c0 1.3 1.1 2.3 2.4 2.3H365c1.3 0 2.4-.9 2.4-2.3v-49.2c-.2-25.2-16.5-33.5-35.6-33.5m-94.7 24.2c0-9.9.4-10.2 9.3-10.2h29.9c1.3 0 2.4-1.1 2.4-2.3v-7.6c0-1.7-.6-2.3-2.4-2.5-3.8-.6-11.5-1.7-25.6-1.7-19.6 0-30-.1-30 24.2v37.4c0 24.4 10.4 24.2 30 24.2 14.1 0 21.8-1.1 25.6-1.6 1.8-.2 2.4-.8 2.4-2.5V-42c0-1.3-1.1-2.4-2.4-2.4h-29.9c-8.9 0-9.3-.3-9.3-10.2v-10.8h37.8c1.3 0 2.4-1.1 2.4-2.4v-8.5c0-1.3-1.1-2.4-2.4-2.4h-37.8v-13.2zm-50.7 35c0 8.9-6.9 12.6-18.7 12.6-2.5 0-13.3-.2-15.4-.5v-25.6c1.9-.1 13.3-.4 15.4-.4 12.2 0 18.7 2.3 18.7 12.7v1.2zm17.8-58.2h-14.4c-1.3 0-1.8 1.2-2.4 2.4l-17 28.7h-2.6c-3.1 0-12.6.3-15.4.5v-29.1c0-1.3-1-2.4-2.3-2.4h-11.8c-1.3 0-2.4 1.1-2.4 2.4v77.5c0 2.4 1.4 3.2 3.8 3.6 6.2.9 19.4 1.5 28 1.5 18.2 0 35-6.5 35-26.7V-58c0-12.5-6.3-19.4-16-23.1l18.6-31.6c.2-.4.2-.7.2-1 .1-.8-.4-1.4-1.3-1.4"/></g></g></g><g id="g2878" transform="matrix(1.25 0 0 -1.25 -735.35 72.156)"><g id="g2880"><g id="g2886"><g id="g2888"><path id="path2898" class="st1" d="M685.4-8.4c-1.7-.9-2.3-3-1.4-4.6.9-1.7 3-2.3 4.7-1.4 1.7.9 2.3 3 1.4 4.7-.6 1.1-1.8 1.8-3 1.8-.6-.1-1.1-.2-1.7-.5m9.3-.1c-1.5-.8-2-2.6-1.2-4.1.8-1.5 2.6-2 4.1-1.2 1.5.8 2 2.7 1.2 4.1-.5 1-1.6 1.6-2.7 1.6-.5 0-1-.2-1.4-.4m-18-2.5c-1.9-1-2.6-3.4-1.6-5.3s3.4-2.6 5.3-1.6 2.6 3.4 1.6 5.3c-.7 1.3-2 2.1-3.4 2.1-.7 0-1.3-.2-1.9-.5m26.8-.4c-1.3-.7-1.8-2.4-1.1-3.6.7-1.3 2.3-1.8 3.6-1.1 1.3.7 1.8 2.3 1.1 3.6-.5.9-1.4 1.4-2.4 1.4-.4 0-.8-.1-1.2-.3m-33.8-5.5c-1.7-.9-2.3-3-1.4-4.7.9-1.6 3-2.3 4.6-1.4 1.7.9 2.3 3 1.4 4.6-.6 1.1-1.8 1.8-3 1.8-.5.2-1.1 0-1.6-.3m41.4 0c-1.1-.6-1.5-2-1-3.1.6-1.1 2-1.5 3.1-1 1.1.6 1.5 2 .9 3.1-.4.8-1.2 1.2-2 1.2-.2.1-.6 0-1-.2m5.7-7.5c-.9-.5-1.3-1.7-.7-2.6.5-.9 1.7-1.3 2.6-.8.9.5 1.3 1.6.8 2.6-.4.7-1 1-1.7 1-.4 0-.7-.1-1-.2m-52-.3c-1.5-.8-2-2.7-1.3-4.1.8-1.5 2.7-2 4.1-1.2 1.5.8 2.1 2.6 1.2 4.1-.6 1-1.6 1.6-2.7 1.6-.4 0-.9-.1-1.3-.4m54.8-7.9c-1.1-.6-1.5-2-.9-3.1s2-1.5 3.1-1c1.1.7 1.6 2 1 3.1-.4.8-1.2 1.2-2 1.2-.5.1-.8 0-1.2-.2m-57.3-1.1c-1.3-.7-1.8-2.3-1.1-3.6.7-1.3 2.3-1.8 3.6-1.1 1.3.7 1.8 2.3 1.1 3.6-.5.9-1.4 1.4-2.3 1.4-.4.1-.8 0-1.3-.3m57.4-7.6c-1.3-.7-1.8-2.3-1.1-3.6.7-1.3 2.4-1.8 3.7-1.1 1.3.7 1.8 2.3 1.1 3.6-.5.9-1.4 1.4-2.3 1.4-.6 0-1-.1-1.4-.3m-57-1.7c-1.1-.6-1.5-2-.9-3.1s2-1.5 3.1-.9 1.6 2 .9 3.1c-.4.8-1.2 1.2-2 1.2-.3-.1-.7-.1-1.1-.3m54.2-6.7c-1.5-.8-2-2.7-1.2-4.2s2.7-2 4.1-1.2c1.5.8 2 2.7 1.3 4.2-.5 1-1.6 1.6-2.7 1.6-.6 0-1.1-.1-1.5-.4m-51-2.2c-.9-.5-1.3-1.7-.8-2.6.5-.9 1.6-1.3 2.6-.8.9.5 1.3 1.7.8 2.6-.3.6-1 1-1.7 1-.3 0-.6 0-.9-.2m45.7-4.9c-1.7-.9-2.3-3-1.4-4.7.9-1.7 3-2.3 4.7-1.4 1.7.9 2.3 3 1.4 4.6-.6 1.2-1.8 1.8-3 1.8-.7.2-1.2 0-1.7-.3m-40.4-2c-1.1-.6-1.5-2-.9-3.1s2-1.5 3.1-.9 1.5 2 .9 3.1c-.4.8-1.2 1.2-2 1.2-.3 0-.7-.1-1.1-.3m32.9-3.1c-1.9-1-2.6-3.4-1.6-5.3s3.4-2.6 5.3-1.6 2.6 3.4 1.6 5.3c-.7 1.3-2 2.1-3.4 2.1-.6 0-1.3-.1-1.9-.5m-25.6-1.7c-1.3-.7-1.8-2.3-1.1-3.6.7-1.3 2.3-1.8 3.6-1.1 1.3.7 1.8 2.4 1.1 3.7-.5.9-1.4 1.4-2.4 1.4-.4 0-.8-.1-1.2-.4m17.3-1.7c-1.7-.9-2.3-3-1.3-4.7.9-1.7 3-2.3 4.6-1.4 1.7.9 2.3 3 1.4 4.6-.6 1.2-1.8 1.8-3 1.8-.6.1-1.2 0-1.7-.3m-8.8-.5c-1.5-.8-2-2.7-1.2-4.1.8-1.5 2.7-2.1 4.2-1.2 1.5.8 2 2.7 1.2 4.2-.5 1-1.6 1.6-2.7 1.6-.6-.1-1.1-.3-1.5-.5"/></g></g></g></g><g id="g2900" transform="matrix(1.25 0 0 -1.25 -735.35 72.156)"><g id="g2902"><g id="g2908"><g id="g2910"><path id="path2920" class="st1" d="M686.9 1c-.7-2.3.6-4.7 3-5.4 2.3-.7 4.7.7 5.4 3 .7 2.3-.6 4.8-2.9 5.4-.4.1-.8.2-1.2.2-2-.1-3.7-1.3-4.3-3.2m11.7-1.4c-.8-2.7.7-5.4 3.4-6.2 2.7-.8 5.4.7 6.2 3.4.8 2.7-.7 5.5-3.4 6.3-.5.1-.9.2-1.4.2-2.1-.1-4.1-1.5-4.8-3.7m-23.4-1c-.6-2.1.6-4.2 2.7-4.8 2-.6 4.2.6 4.8 2.6.6 2-.6 4.2-2.6 4.8-.4.1-.7.1-1.1.1-1.7 0-3.3-1.1-3.8-2.7m35.3-4.5c-.7-2.3.7-4.7 3-5.4 2.3-.7 4.7.7 5.4 3 .7 2.3-.6 4.7-3 5.4-.4.1-.8.2-1.2.2-1.9-.1-3.7-1.3-4.2-3.2m-45.4-1.7c-.5-1.6.4-3.3 2.1-3.8 1.6-.5 3.3.5 3.8 2.1s-.5 3.3-2.1 3.8c-.3.1-.6.1-.9.1-1.3 0-2.5-.9-2.9-2.2m54.8-7c-.6-2.1.6-4.2 2.6-4.8 2.1-.6 4.2.6 4.8 2.6.6 2-.6 4.2-2.6 4.8-.4.1-.7.2-1.1.2-1.6 0-3.1-1.1-3.7-2.8m-62.7-2.2c-.4-1.3.4-2.7 1.7-3 1.3-.4 2.7.4 3.1 1.7.4 1.3-.4 2.7-1.7 3.1-.2.1-.5.1-.7.1-1.1-.1-2.1-.8-2.4-1.9m69.5-8.9c-.5-1.6.5-3.3 2.1-3.8s3.3.5 3.8 2.1-.4 3.3-2.1 3.8c-.3.1-.6.1-.9.1-1.3 0-2.6-.9-2.9-2.2m-74.2-2.5c-.3-1 .2-2 1.2-2.3 1-.3 2 .3 2.3 1.3.3 1-.3 2-1.3 2.3-.2 0-.3.1-.5.1-.8-.1-1.5-.6-1.7-1.4m77-9.9c-.4-1.3.3-2.7 1.7-3.1 1.3-.4 2.7.4 3.1 1.7.4 1.3-.3 2.7-1.7 3.1-.2.1-.5.1-.7.1-1.1 0-2.1-.7-2.4-1.8m-79.3-2.2c-.4-1.3.4-2.7 1.7-3.1 1.3-.4 2.7.3 3.1 1.7.4 1.3-.4 2.7-1.7 3.1-.2.1-.5.1-.7.1-1 0-2-.7-2.4-1.8m78.3-10.2c-.3-1 .3-2 1.2-2.3 1-.3 2 .3 2.3 1.3.3 1-.2 2-1.2 2.3-.2 0-.3.1-.5.1-.8-.1-1.5-.6-1.8-1.4M652-52.3c-.5-1.6.4-3.3 2.1-3.8 1.6-.5 3.3.5 3.8 2.1s-.5 3.3-2.1 3.8c-.3.1-.6.1-.9.1-1.3 0-2.5-.9-2.9-2.2m70.6-9.3c-.4-1.3.4-2.7 1.7-3.1 1.3-.4 2.7.4 3.1 1.7.4 1.3-.4 2.7-1.7 3.1-.2.1-.5.1-.7.1-1.1 0-2-.7-2.4-1.8M657.1-63c-.6-2 .6-4.2 2.6-4.8 2.1-.6 4.2.6 4.8 2.6.6 2-.6 4.2-2.7 4.8-.4.1-.7.2-1.1.2-1.5 0-3-1.1-3.6-2.8m56.4-7.4c-.5-1.6.5-3.3 2.1-3.8s3.3.4 3.8 2.1c.5 1.6-.4 3.3-2 3.8-.3.1-.6.1-.9.1-1.4 0-2.6-.9-3-2.2m-47.8-1c-.7-2.3.6-4.7 3-5.4 2.3-.7 4.7.7 5.4 2.9.7 2.3-.7 4.7-3 5.4-.4.1-.8.2-1.2.2-1.9.1-3.6-1.2-4.2-3.1m10.6-5.1c-.8-2.7.7-5.4 3.4-6.2 2.7-.8 5.5.8 6.2 3.4.8 2.7-.7 5.5-3.4 6.2-.5.1-.9.2-1.4.2-2.2 0-4.2-1.4-4.8-3.6m25.5.4c-.6-2.1.6-4.2 2.6-4.8 2.1-.6 4.2.6 4.8 2.6.6 2-.6 4.2-2.6 4.8-.4.1-.7.2-1.1.2-1.6 0-3.2-1.1-3.7-2.8m-12.6-2.2c-.7-2.3.7-4.7 3-5.4 2.3-.7 4.8.6 5.4 2.9.7 2.3-.6 4.8-3 5.4-.4.1-.8.2-1.2.2-1.9.1-3.6-1.2-4.2-3.1"/></g></g></g></g><g id="g2922" transform="matrix(1.25 0 0 -1.25 -735.35 72.156)"><g id="g2924"><g id="g2930"><g id="g2932"><path id="path2942" class="st1" d="M695.3 16c-1.9-2-1.8-5.2.2-7 2-1.9 5.2-1.8 7 .2 1.9 2 1.8 5.1-.2 7-1 .9-2.2 1.3-3.4 1.3-1.3 0-2.6-.5-3.6-1.5m-15.7-1.3c-1.5-1.6-1.4-4.1.2-5.6 1.6-1.5 4-1.4 5.5.2 1.5 1.6 1.4 4.1-.2 5.5-.8.7-1.7 1.1-2.7 1.1-1 .1-2.1-.3-2.8-1.2m31.2-2.9c-2.1-2.2-2-5.8.2-7.9 2.2-2.1 5.8-2 7.9.2 2.1 2.2 2 5.8-.2 7.9-1.1 1-2.5 1.5-3.8 1.5-1.6 0-3-.6-4.1-1.7m-46.3-3.1c-1.2-1.3-1.1-3.3.1-4.5 1.4-1.2 3.4-1.2 4.6.1 1.2 1.3 1.1 3.3-.1 4.5-.6.6-1.4.9-2.2.9-.9 0-1.7-.4-2.4-1M723.8 3c-2.5-2.6-2.3-6.6.2-9.1 2.6-2.5 6.7-2.3 9.1.2 2.4 2.6 2.3 6.7-.3 9.1-1.2 1.2-2.8 1.8-4.4 1.8-1.6 0-3.3-.6-4.6-2m-71.7-5c-.9-1-.9-2.4.1-3.3 1-.9 2.5-.9 3.3.1.9 1 .8 2.5-.1 3.3-.5.4-1.1.6-1.6.6-.6 0-1.3-.2-1.7-.7m82.4-8.6c-2.1-2.2-2-5.8.2-7.9 2.3-2.1 5.8-2 7.9.2 2.1 2.3 2 5.8-.2 7.9-1.1 1-2.4 1.5-3.8 1.5-1.5 0-3-.6-4.1-1.7m-92.3-4.5c-1.2-1.3-1.1-3.3.1-4.5 1.3-1.2 3.3-1.1 4.5.1 1.2 1.3 1.1 3.3-.1 4.5-.6.6-1.4.9-2.2.9-.9 0-1.7-.4-2.3-1m98.3-11.5c-1.9-2-1.8-5.1.2-7 2-1.9 5.2-1.8 7 .2 1.9 2 1.8 5.1-.2 7-1 .9-2.2 1.4-3.4 1.4-1.3-.1-2.6-.6-3.6-1.6M637-30.5c-1.5-1.6-1.4-4 .2-5.5 1.6-1.5 4-1.4 5.5.2 1.5 1.6 1.4 4.1-.2 5.5-.8.7-1.7 1.1-2.7 1.1-1 0-2-.5-2.8-1.3m104.8-13.4c-1.5-1.6-1.4-4 .2-5.5 1.6-1.5 4-1.4 5.5.2 1.5 1.6 1.4 4-.2 5.5-.8.7-1.7 1.1-2.7 1.1-1-.1-2-.5-2.8-1.3m-105.1-2.4c-1.9-2-1.8-5.2.2-7 2-1.9 5.2-1.8 7 .2 1.9 2 1.8 5.1-.2 7-1 .9-2.2 1.3-3.4 1.3-1.3.1-2.6-.4-3.6-1.5m101-14c-1.2-1.3-1.2-3.3.1-4.5 1.3-1.2 3.3-1.1 4.5.2 1.2 1.3 1.1 3.3-.1 4.5-.6.6-1.4.8-2.2.9-.8-.1-1.6-.4-2.3-1.1m-95.9-1.1c-2.1-2.2-2-5.8.2-7.9 2.3-2.1 5.8-2 7.9.2 2.1 2.2 2 5.8-.2 7.9-1.1 1-2.5 1.5-3.8 1.5-1.5 0-3-.6-4.1-1.7m9.5-12.5c-2.4-2.6-2.3-6.6.3-9.1 2.6-2.4 6.7-2.3 9.1.3 2.4 2.6 2.3 6.6-.3 9.1-1.2 1.2-2.8 1.8-4.4 1.8-1.7-.1-3.4-.8-4.7-2.1m77.7-.6c-.9-.9-.8-2.4.1-3.3 1-.9 2.5-.8 3.3.1.9.9.9 2.4-.1 3.3-.5.4-1 .7-1.6.7-.6 0-1.2-.3-1.7-.8m-63.4-9.3c-2.1-2.2-2-5.8.2-7.9 2.2-2.1 5.8-2 7.9.2 2.1 2.2 2 5.8-.2 7.9-1.1 1-2.5 1.5-3.8 1.5-1.5 0-3-.6-4.1-1.7m49.7-.2c-1.2-1.3-1.2-3.3.1-4.5 1.3-1.2 3.3-1.1 4.5.1 1.2 1.3 1.2 3.3-.1 4.5-.6.6-1.4.9-2.2.9-.8-.1-1.6-.4-2.3-1m-33.4-4.9c-1.9-2-1.8-5.2.2-7 2-1.9 5.2-1.8 7 .2 1.9 2 1.8 5.2-.2 7-1 .9-2.2 1.4-3.4 1.4-1.3 0-2.6-.5-3.6-1.6m17.3-.2c-1.5-1.6-1.4-4 .2-5.5 1.6-1.5 4.1-1.4 5.5.2 1.5 1.6 1.4 4.1-.2 5.5-.8.7-1.7 1.1-2.7 1.1-1-.1-2-.5-2.8-1.3"/></g></g></g></g><g id="g2944" transform="matrix(1.25 0 0 -1.25 -735.35 72.156)"><g id="g2946"><g id="g2952"><g id="g2954"><path id="path2964" class="st1" d="M699.5 33.5c-2.3-.5-3.8-2.7-3.4-5.1.5-2.3 2.7-3.8 5.1-3.4 2.3.5 3.8 2.7 3.4 5.1-.4 2.1-2.2 3.5-4.2 3.5-.3 0-.6 0-.9-.1m-17.8-1.1c-1.8-.3-3.1-2-2.8-3.8.3-1.8 2-3.1 3.8-2.8 1.8.3 3.1 2 2.8 3.8-.2 1.7-1.7 2.9-3.3 2.9-.2-.1-.4-.1-.5-.1m35-2.5c-2.8-.7-4.5-3.5-3.8-6.3.7-2.8 3.6-4.5 6.3-3.8 2.8.7 4.5 3.6 3.8 6.3-.6 2.4-2.7 3.9-5 3.9-.4.1-.9 0-1.3-.1M663.4 27c-1.6-.7-2.3-2.5-1.6-4.1.7-1.6 2.5-2.3 4.1-1.6 1.6.7 2.3 2.5 1.6 4.1-.5 1.2-1.7 1.9-2.9 1.9-.3-.1-.8-.2-1.2-.3m68.5-4.8c-3.4-1.1-5.3-4.7-4.3-8.1 1.1-3.4 4.7-5.3 8.1-4.3 3.4 1.1 5.3 4.7 4.3 8.1-.9 2.8-3.4 4.6-6.2 4.6-.6 0-1.2-.1-1.9-.3M647 17.4c-1.5-1.1-1.7-3.3-.5-4.7 1.2-1.5 3.3-1.7 4.7-.6 1.5 1.2 1.7 3.3.6 4.7-.7.8-1.6 1.3-2.6 1.3-.9 0-1.6-.2-2.2-.7m97.4-7.3c-3.7-1.4-5.6-5.5-4.2-9.2 1.4-3.7 5.5-5.6 9.2-4.2 3.7 1.4 5.6 5.5 4.2 9.2-1.1 2.9-3.8 4.7-6.7 4.7-.8-.1-1.7-.2-2.5-.5M633.9 5.2c-1.9-1.4-2.4-4-1-6 1.4-1.9 4.1-2.4 6-1 1.9 1.4 2.4 4.1 1 6-.9 1.2-2.2 1.8-3.5 1.8-.9 0-1.7-.2-2.5-.8M753.1-5.1c-4-1.7-5.8-6.3-4.1-10.2 1.7-3.9 6.3-5.8 10.2-4.1 4 1.7 5.8 6.3 4.1 10.2-1.3 2.9-4.1 4.7-7.2 4.7-.9 0-2-.2-3-.6M624.7-9.7c-2.4-1.5-3.2-4.8-1.6-7.2 1.5-2.4 4.8-3.2 7.2-1.6 2.4 1.5 3.2 4.8 1.6 7.2-1 1.6-2.7 2.4-4.4 2.4-.9 0-1.9-.3-2.8-.8M758-23.4c-3.5-1.8-5-6.1-3.2-9.6 1.8-3.6 6.1-5 9.6-3.2 3.5 1.8 5 6 3.2 9.6-1.2 2.5-3.8 4-6.4 4-1.1 0-2.2-.3-3.2-.8m-138.1-2.7c-3.1-1.8-4.2-5.7-2.5-8.8 1.8-3.1 5.7-4.2 8.8-2.5 3.1 1.8 4.2 5.7 2.5 8.8-1.2 2.1-3.4 3.3-5.7 3.3-1 0-2.1-.2-3.1-.8m138.3-16.2c-3.1-1.8-4.2-5.7-2.5-8.8 1.8-3.1 5.7-4.2 8.8-2.5 3.1 1.8 4.2 5.7 2.5 8.8-1.2 2.1-3.4 3.3-5.7 3.3-1 0-2.1-.2-3.1-.8m-138.1-1.2c-3.5-1.7-5-6-3.2-9.6 1.8-3.5 6.1-5 9.6-3.2 3.5 1.8 5 6 3.2 9.6-1.3 2.5-3.8 4-6.4 4-1-.1-2.1-.3-3.2-.8m5.1-16.8c-4-1.7-5.8-6.3-4.1-10.2 1.7-4 6.3-5.8 10.2-4.1 4 1.7 5.8 6.3 4.1 10.2-1.3 3-4.1 4.7-7.2 4.7-.9 0-2-.2-3-.6m129-.9c-2.4-1.5-3.2-4.8-1.6-7.2 1.5-2.4 4.8-3.2 7.2-1.6 2.4 1.5 3.2 4.7 1.6 7.2-1 1.6-2.7 2.4-4.4 2.4-1 0-1.9-.2-2.8-.8M635.1-76.4c-3.7-1.4-5.6-5.5-4.2-9.2 1.4-3.7 5.5-5.6 9.2-4.2 3.7 1.4 5.6 5.5 4.2 9.2-1.1 2.9-3.8 4.7-6.7 4.7-.8 0-1.7-.2-2.5-.5M745.6-78c-1.9-1.4-2.4-4.1-1-6 1.4-1.9 4.1-2.4 6-1 1.9 1.4 2.4 4.1 1 6-.8 1.2-2.2 1.8-3.5 1.8-.8 0-1.7-.2-2.5-.8m-96.9-11.5c-3.4-1.1-5.3-4.7-4.2-8.1 1.1-3.4 4.7-5.3 8.1-4.3 3.4 1.1 5.3 4.7 4.3 8.1-.9 2.8-3.4 4.6-6.2 4.6-.7 0-1.3-.1-2-.3m84.7-2.4c-1.5-1.2-1.7-3.3-.5-4.7 1.2-1.5 3.3-1.7 4.7-.6 1.5 1.2 1.7 3.3.5 4.7-.7.8-1.6 1.3-2.6 1.3-.8.1-1.5-.2-2.1-.7m-68.2-7.7c-2.8-.7-4.5-3.5-3.8-6.3.7-2.8 3.5-4.5 6.3-3.8 2.8.7 4.5 3.5 3.8 6.3-.6 2.4-2.7 3.9-5 3.9-.4.1-.8.1-1.3-.1m53.4-1.4c-1.6-.7-2.3-2.5-1.6-4.1.7-1.6 2.5-2.3 4.1-1.6 1.6.7 2.3 2.5 1.6 4.1-.5 1.2-1.7 1.9-2.9 1.9-.4 0-.8-.1-1.2-.3m-35.3-3.8c-2.3-.5-3.8-2.7-3.4-5.1.5-2.3 2.7-3.8 5.1-3.4 2.3.5 3.8 2.7 3.4 5.1-.4 2-2.2 3.4-4.2 3.4h-.9m18.5-.7c-1.8-.3-3.1-2-2.8-3.8.3-1.8 2-3.1 3.8-2.8 1.8.3 3.1 2 2.8 3.8-.2 1.7-1.7 2.9-3.3 2.9-.1 0-.3 0-.5-.1"/></g></g></g></g><g id="g2966" transform="matrix(1.25 0 0 -1.25 -735.35 72.156)"><g id="g2968"><g id="g2974"><g id="g2976"><path id="path2986" class="st1" d="M688.2 49.3c0-2.2 1.8-4 4-4s4 1.8 4 4-1.8 4-4 4-4-1.7-4-4m23-1.9c-.6-2.3.8-4.7 3-5.3 2.3-.6 4.7.7 5.3 3 .6 2.3-.8 4.7-3.1 5.3-.4.1-.8.2-1.1.2-1.9 0-3.6-1.3-4.1-3.2m-43.2 3c-2.3-.6-3.7-3-3-5.3.6-2.3 3-3.7 5.3-3 2.3.6 3.7 3 3.1 5.3-.5 1.9-2.2 3.2-4.2 3.2-.4 0-.8 0-1.2-.2m63.5-11.8c-.6-3 1.3-5.9 4.2-6.5 3-.6 5.9 1.3 6.5 4.2.6 3-1.3 5.9-4.2 6.5-.4.1-.8.1-1.2.1-2.5 0-4.8-1.8-5.3-4.3m-85 4.2c-3-.6-4.9-3.5-4.2-6.5.6-3 3.6-4.9 6.5-4.2 3 .6 4.9 3.6 4.2 6.5-.5 2.6-2.8 4.3-5.4 4.3-.3 0-.7 0-1.1-.1m102.2-18.5c-.6-3.6 1.9-7.1 5.5-7.6 3.6-.6 7.1 1.9 7.6 5.6.6 3.7-1.9 7.1-5.5 7.6-.4 0-.7.1-1.1.1-3.1-.1-5.9-2.4-6.5-5.7m-120.6 5.5c-3.6-.6-6.1-4-5.5-7.6.6-3.6 4-6.1 7.6-5.6 3.7.6 6.1 4 5.6 7.6-.5 3.3-3.4 5.6-6.6 5.6-.4.1-.7.1-1.1 0M761.2 5.6c-.5-4.6 2.8-8.7 7.4-9.1 4.6-.5 8.7 2.8 9.1 7.4.5 4.6-2.8 8.7-7.4 9.1h-.9c-4.1.1-7.7-3.1-8.2-7.4M614.1 13c-4.6-.5-7.9-4.6-7.4-9.1.5-4.6 4.6-7.9 9.1-7.4 4.6.5 7.9 4.6 7.4 9.1-.5 4.3-4.1 7.4-8.3 7.4-.2.1-.5.1-.8 0m155.2-29.3c-.3-5.1 3.6-9.4 8.7-9.6 5.1-.3 9.4 3.6 9.7 8.7.3 5.1-3.6 9.4-8.7 9.6h-.5c-4.9 0-9-3.8-9.2-8.7M605.6-7.6c-5-.3-8.9-4.5-8.7-9.6.3-5.1 4.6-9 9.7-8.7 5.1.3 8.9 4.6 8.7 9.6-.3 4.9-4.3 8.7-9.2 8.7h-.5m165.9-32.3c0-5.5 4.5-10 10-10s10 4.5 10 10-4.5 10-10 10c-5.6 0-10-4.4-10-10m-178.4 0c0-5.5 4.5-10 10-10s10 4.5 10 10-4.5 10-10 10c-5.6 0-10-4.4-10-10m184.8-13.9c-5-.3-8.9-4.6-8.7-9.6.3-5.1 4.6-8.9 9.7-8.7 5 .3 8.9 4.5 8.7 9.6-.2 4.9-4.3 8.7-9.2 8.7h-.5m-181-8.7c-.3-5.1 3.6-9.4 8.7-9.6 5.1-.3 9.4 3.6 9.7 8.7.3 5.1-3.6 9.4-8.7 9.6h-.5c-4.9 0-8.9-3.8-9.2-8.7m171.7-13.7c-4.6-.5-7.9-4.6-7.4-9.2s4.6-7.9 9.2-7.4 7.9 4.6 7.4 9.1c-.5 4.3-4 7.4-8.3 7.4-.3.2-.6.1-.9.1m-161.9-7.4c-.5-4.6 2.8-8.7 7.4-9.1 4.6-.5 8.7 2.8 9.1 7.4.5 4.6-2.8 8.7-7.4 9.2-.3 0-.6.1-.9.1-4.1-.1-7.7-3.3-8.2-7.6m147.6-12.8c-3.6-.6-6.1-4-5.5-7.6.6-3.7 4-6.1 7.6-5.6 3.6.6 6.1 4 5.5 7.6-.5 3.3-3.4 5.6-6.6 5.6-.3.1-.7.1-1 0m-131.7-5.5c-.6-3.7 1.9-7.1 5.5-7.6 3.7-.6 7.1 1.9 7.7 5.6.6 3.6-1.9 7.1-5.6 7.6-.3.1-.7.1-1 .1-3.3-.1-6.1-2.4-6.6-5.7m113.1-9.8c-3-.6-4.9-3.6-4.2-6.5.6-3 3.6-4.9 6.5-4.2 3 .6 4.9 3.6 4.2 6.6-.5 2.6-2.8 4.4-5.4 4.4-.3-.2-.7-.3-1.1-.3m-93.5-4.3c-.6-3 1.3-5.9 4.2-6.6 3-.6 5.9 1.3 6.5 4.2.6 3-1.3 5.9-4.2 6.5-.4.1-.8.1-1.1.1-2.5.2-4.8-1.6-5.4-4.2m72-5.9c-2.3-.6-3.7-3-3-5.3.6-2.3 3-3.7 5.3-3 2.3.6 3.7 3 3.1 5.3-.5 1.9-2.3 3.2-4.2 3.2-.4 0-.8-.1-1.2-.2m-49.2-3c-.6-2.3.8-4.6 3-5.3 2.3-.6 4.7.7 5.3 3 .6 2.3-.8 4.7-3.1 5.3-.4.1-.7.2-1.1.2-1.8 0-3.6-1.3-4.1-3.2m23.2-4.2c0-2.2 1.8-4 4-4s4 1.8 4 4-1.8 4-4 4-4-1.8-4-4"/></g></g></g></g></svg>