<svg version="1.1" id="Layer_1" xmlns="http://www.w3.org/2000/svg" x="0" y="0" viewBox="0 0 401 82" xml:space="preserve"><path class="st0" d="M0-.1v82h80.2v-82H0zM63.5 65c-.3 1.4-.4 3-1.8 3.9-3.8.5-7.7.5-11.5 0-1.3-.8-1.4-2.5-1.8-3.9-2.8-12.8-5.2-25.7-8.2-38.4-.5 1-.9 2.1-1 3.2-2.4 11.9-5 23.7-7.4 35.6-.3 1.4-.8 3.7-2.7 3.6-3.5.2-7.1.4-10.6-.2-1.9-1.3-1.5-4-2.2-6-3.6-16.6-6.8-33.4-10.4-50.1h11c2.3 15.2 4.9 30.3 7.6 45.4.5-1.1.8-2.3 1.1-3.5C28.2 41.8 31 29 33.7 16.2c.3-1.3.7-3.3 2.4-3.5 3-.2 5.9-.2 8.9 0 2.4 1.1 2.1 4.3 2.8 6.6 2.9 12.9 5.1 26 8.5 38.9 3-15.1 5.1-30.4 7.8-45.5h10.1C70.4 30.1 67.1 47.6 63.5 65zM159.8-.1v82H240v-82h-80.2zM213 69c-.4-6.1-.9-12.1-1.2-18.2.1-2.4-2.6-4-4.8-3.8h-18.1v22h-11.1V12.8h33.1c3.4 0 7.5.4 9.7 3.4 2.7 3.6 2.6 8.3 2.7 12.6 0 3.7-.2 7.7-2.6 10.7-1.6 2.2-4.5 2.3-6.8 3.5 3 .9 6.9 1.7 7.9 5.2 1.9 6.7.7 13.9 1.7 20.7-3.4.1-6.9.1-10.5.1zM319.8-.1v82H401v-82h-81.2zm62.1 62.7c-3.5 5.2-10.2 6.2-15.9 6.3-9.4.1-18.7 0-28 0V12.7c9.7 0 19.4-.1 29.1.1 5.4.2 11.6 1.5 14.8 6.3 4.1 6.5 3.4 14.5 4.2 21.8-.8 7.3-.2 15.2-4.2 21.7z"/><path class="st0" d="M189 22c7.1.1 14.3-.2 21.4.1 2.8 1.9 2.2 5.9 2.3 8.8-.1 2.7-.2 7-3.8 7.2-6.6.3-13.3 0-20 .1.1-5.4.1-10.8.1-16.2zm160 .1h18.1c2.7 0 5.8 1.3 6.6 4 1.9 5.4 1.1 11.3 1.3 16.9-.2 4.5.3 9.2-1.6 13.4-1.3 2.7-4.6 3.4-7.3 3.4H349V22.1z"/><path class="st0" d="M349 22v37.8h17.1c2.7 0 6-.7 7.3-3.4 1.9-4.2 1.4-9 1.6-13.4-.2-5.6.6-11.5-1.3-16.9-.9-2.8-3.9-4.1-6.6-4-6-.2-12.1-.1-18.1-.1zm-46.4 47.5h-48.2c-.1-3.3 0-6.7 0-10h7.6V22.3h-7.7v-10h47.5V31h-10.3v-8.6h-18.6v12.9h15v9.6h-15v14.7c6.4-.1 12.7 0 19.1 0v-9.8h10.5c.1 6.5.2 13.1.1 19.7zm-163.2-10v10.1h-38.8V59.5h13.7V22.3h-13.7V12.2h38.8v10.1h-13.7v37.2c4.6 0 9.1-.1 13.7 0z"/></svg>